<svg version="1" xmlns="http://www.w3.org/2000/svg" width="346.667" height="346.667" viewBox="0 0 260.000000 260.000000"><path d="M0 9.5V19h260V0H0v9.5zM40.3 45.3c-.2.4-.4 35-.4 76.7l.2 76H24v18h64v-18h-7.9c-7.3 0-7.9-.2-8.5-2.3-.3-1.2-.6-18.8-.6-39.1v-36.9l2.8 3.9c3.1 4.2 23.1 33.5 24.7 36.2.6.9 1.8 2.5 2.8 3.6.9 1.1 1.7 2.4 1.7 2.8 0 .5.9 1.8 2 3 1 1.2 1.7 2.5 1.4 3-.3.4-.1.8.4.8 1.2 0 4.5 5 4.5 6.7 0 .7.3 1 .7.8.8-.5 10.6 14.6 10.2 15.9-.2.6 0 .8.4.3.4-.4 2 1.3 3.6 3.8 1.5 2.5 3.1 4.5 3.6 4.5.4 0 2.2-2.5 4.1-5.5 1.8-3 3.8-5.2 4.4-4.8.5.3.7.2.4-.4-.6-1 2.6-6.6 3.5-5.8.2.3.5-.1.5-.8 0-2.1 3.5-6.7 4.6-6 .6.3.7.1.3-.5-.8-1.3 9.2-16.8 10.6-16.4.5.1.7-.2.4-.7-.7-1 11.8-20.1 13.7-20.9.4-.2.7-.7.7-1.2s2.4-4.3 5.3-8.6c2.8-4.2 6-8.8 6.9-10.3 1.7-2.5 1.8-1 1.8 36.1V198h-17v18h64v-18h-15v-76.1c0-41.8-.2-76.4-.4-76.7-.7-1.1-44.5-.7-45.5.3-.4.6-4.2 6.2-8.4 12.5s-8.4 12.6-9.5 14c-1 1.4-5.6 8.1-10.3 15-4.6 6.9-8.7 12.6-9.1 12.8-.5.2-.8.9-.8 1.5 0 .7-1.1 2.5-2.5 4.1-1.4 1.6-2.5 3.4-2.5 3.9 0 .6-1.6-1.1-3.4-3.8-1.9-2.7-3.2-5.3-2.9-5.9.3-.6.3-.8-.2-.4-.8.8-5.5-5.3-5.5-7.1 0-.6-.4-1.1-.8-1.1-.7 0-11-14.8-12.1-17.5-.2-.5-.8-1.4-1.3-2C101.6 69.1 90.1 52 90.6 52c.3 0-.2-.7-1-1.5-.9-.9-2.2-2.6-3-3.7-1.5-2.1-2.3-2.1-23.6-2.2-12.2-.1-22.4.2-22.7.7zm35.8 26.2c2.1 3.2 3.5 6.3 3.2 6.8-.3.6-.1.7.5.4.5-.4 2.4 1.4 4.1 4 1.7 2.7 3.4 5.2 3.9 5.8 3.3 4.1 5.2 7.6 4.7 8.5-.4.6-.2.9.4.8 1.4-.4 11.2 14.1 10.5 15.4-.4.7-.2.8.5.4.6-.4 1.4 0 1.8 1.1.3 1 1.2 2.2 2 2.6.7.4 1.3 1.4 1.3 2.1 0 .8.7 1.9 1.5 2.6.9.7 1.4 1.9 1.1 2.7-.3.8-.2 1.1.4.8.5-.3 1.4.5 2.1 1.7.7 1.2 1.8 2.9 2.6 3.6.7.8 1.1 1.7.8 2.2-.3.4.2 1.1 1.1 1.4.9.4 1.4.9 1 1.3-.3.3.3 1.2 1.4 2 1.1.8 2 2.1 2 2.9 0 .8.4 1.4.9 1.4s1.4 1.3 2.1 3c.7 1.6 1.6 3 2.1 3s.9.8.9 1.7c.1 1.5.3 1.3 1.3-.5.7-1.2 1.6-1.9 2.1-1.5.4.4.4 0 0-1-.3-.9-.2-1.7.3-1.7.6 0 1.5-1.2 2.2-2.6.8-1.8 1.7-2.4 2.8-2 1.3.5 1.3.4.4-.7s-.8-1.7.2-2.6c.8-.6 1.8-.7 2.2-.3.5.4.5.1.1-.6-.8-1.4 3-8.2 4.6-8.2.6 0 .9-.3.5-.6-.3-.4 1.1-2.9 3.2-5.8 2-2.8 5.2-7.6 7-10.6 1.9-3 3.6-5.7 4-6 .3-.3 1.1-1.4 1.8-2.5.6-1.1 1.6-1.9 2.3-1.7.6.1.9-.2.5-.8-.4-.6 0-2.1.8-3.3.9-1.2 5.2-7.4 9.6-13.7 4.5-6.3 8.6-12.5 9.1-13.7 1-2.3 3.7-4.1 5.8-3.7.6.1 1.8.2 2.5.3.8.1.6.6-.5 1.5-1 .7-1.8 1.6-1.8 1.9 0 1.2-5.2 8.2-6 8-.4-.1-.7.5-.6 1.5 0 .9-.5 1.6-1.2 1.4-.8-.1-1.1.2-.7.8 1.1 1.8-21.5 35.2-23.3 34.5-1.2-.4-1.3-.3-.3.9 1.1 1.2.8 2-1.3 4.1-1.4 1.4-2.6 2.9-2.6 3.3-.2 1.4-10.5 16-11.1 15.6-.4-.2-.6.4-.5 1.4 0 .9-.4 1.6-1 1.5-.6-.1-1.1.4-1.1 1.2 0 1.9-7.4 12.5-8.3 12-.4-.3-.7.3-.6 1.2.2 2.6-3.4 2.9-4.1.4-.3-1.2-1-2.1-1.5-2.1s-.6-.5-.3-1c.3-.6.2-1-.3-1s-1.7-1.2-2.7-2.6c-1.4-2.1-1.4-2.8-.3-4.2 1.1-1.5 1.1-1.5-.3-.5-1.3 1.1-2 .6-4.7-3.3-1.8-2.5-3-4.9-2.7-5.4.3-.4-.7-1.5-2.1-2.5-1.6-1-2.3-2.2-2-3.1.4-1 .2-1.2-.6-.8-.8.5-.9.2-.5-.9.3-.9.1-1.9-.5-2.3-.7-.5-.8-.2-.3.7.8 1.2.6 1.2-.8 0-.9-.7-1.5-1.7-1.2-2.1.3-.5.1-1-.3-1.2-1.8-.7-8.2-10.9-7.6-12 .4-.7.3-.8-.4-.4s-1.2.1-1.2-.8-.4-1.6-.8-1.6c-1.2 0-4.2-5.6-3.4-6.4.4-.4 0-.6-.8-.4-.8.1-1.4-.3-1.2-1 .1-.6-.2-1.2-.8-1.2-.5 0-1-.7-1-1.5s-.4-1.5-.8-1.5-2.3-2.6-4.2-5.8c-1.9-3.1-4.3-6.6-5.2-7.6-1-1.1-1.8-2.6-1.8-3.3 0-.7-.4-1.3-1-1.3-.5 0-1.2-1.1-1.6-2.4-.3-1.4-1.2-2.7-2-3-.8-.3-1.4-1.2-1.4-2.1 0-.8-.4-1.5-1-1.5-.5 0-1-.6-1-1.4 0-.8-.5-1.6-1.2-1.8-1.9-.7-.1-2.5 2.3-2.3 1.4.1 3.4 2.1 6 6z"/><path d="M163.3 167.5c0 .8.4 1.5.9 1.5.4 0 .8-.4.8-.9 0-.6-.4-1.2-.8-1.5-.5-.3-.9.1-.9.9zM175.6 168.7c-.6 1.4-.5 1.5.5.6.7-.7 1-1.5.7-1.8-.3-.3-.9.2-1.2 1.2z"/></svg>