<?xml version="1.0" encoding="utf-8"?>
<!-- Generator: Adobe Illustrator 22.1.0, SVG Export Plug-In . SVG Version: 6.00 Build 0)  -->
<svg version="1.1" xmlns="http://www.w3.org/2000/svg" xmlns:xlink="http://www.w3.org/1999/xlink" x="0px" y="0px"
	 viewBox="0 0 515.8 400" style="enable-background:new 0 0 515.8 400;" xml:space="preserve">
<style type="text/css">
	.st0{display:none;}
	.st1{display:inline;}
	.st2{fill:#D8D8D7;}
	.st3{fill:#5F5F5F;}
	.st4{fill:#8899CB;}
	.st5{fill:#E5503F;}
	.st6{fill:#56BB73;}
	.st7{fill:#EFC420;}
	.st8{fill:#54BB72;}
	.st9{fill:#EFC524;}
	.st10{fill:#EDC21D;}
	.st11{fill:#EA7161;}
	.st12{fill:#50B86E;}
	.st13{fill:#B9BEC2;}
	.st14{fill:#BABFC3;}
	.st15{fill:#333333;}
	.st16{fill:#AE76B3;}
	.st17{fill:#EBBF65;}
	.st18{fill:#8BC670;}
	.st19{fill:#AAB2C1;}
	.st20{fill:#EB4740;}
	.st21{fill:#58ACE0;}
	.st22{fill:#F7941D;}
	.st23{fill:#CDB87D;}
	.st24{fill:#808285;}
	.st25{display:inline;fill:#5F5F5F;}
	.st26{filter:url(#Adobe_OpacityMaskFilter);}
	.st27{mask:url(#SVGID_1_);}
	.st28{fill-rule:evenodd;clip-rule:evenodd;fill:#1D2957;}
	.st29{display:inline;fill:#AE76B3;}
	.st30{display:inline;fill:#AAB2C1;}
	.st31{display:inline;fill:#58ACE0;}
	.st32{display:inline;fill:#EBBF65;}
	.st33{display:inline;fill:#EB4740;}
	.st34{display:inline;fill:#8BC670;}
	.st35{fill:#1D2957;}
	.st36{font-family:'ProLamina-2';}
	.st37{font-size:240.6134px;}
</style>
<g id="copy" class="st0">
	<g id="fsWT1E.tif" class="st1">
		<g>
			<path class="st2" d="M-21.5,2.9c0,91.1,0,182.2,0,273.2c0,1.9-0.4,2.3-2.3,2.3c-101.9-0.1-203.8,0-305.7,0
				c0.1-1.1,0.2-2.2,0.2-3.2c0-89.8,0-179.6,0-269.4c0-0.9-0.1-1.8-0.1-2.7c1.2-0.1,2.5-0.2,3.7-0.2c100.4,0,200.8,0,301.2,0
				C-23.5,2.8-22.5,2.9-21.5,2.9z M-114.8,51c-13.2,0-26.3,0-39.5,0c-2,0-4-0.1-6,0c-2.7,0.2-4.5,1.8-5.5,4.1
				c-0.8,2.1-0.3,4.2,1.2,5.8c1.7,2,4.1,2.3,6.6,2.3c28.8,0,57.6,0,86.4,0c1.4,0,2.7-0.2,3.9-0.5c4.2-1.2,5.8-6.4,2.9-9.6
				c-1.5-1.7-3.6-2.3-5.9-2.2C-85.3,51-100.1,51-114.8,51z M-138.8,159.5c5.8,0,11.7,0,17.5,0c9.2,0,18.5,0,27.7,0
				c3.3,0,5.8-2.4,6-5.5c0.2-3.3-1.9-5.9-5.3-6.4c-0.8-0.1-1.7-0.1-2.5-0.1c-29,0-58,0-87,0c-1,0-2,0.1-3,0.2
				c-2.6,0.5-4.1,2.1-4.7,4.6c-0.9,3.9,2,7.1,6.5,7.1C-168.6,159.5-153.7,159.5-138.8,159.5z M-142,87.3c10.7,0,21.5,0,32.2,0
				c3.5,0,7,0.1,10.5,0c3-0.1,5.4-2.4,5.7-5.3c0.4-2.9-1.4-5.6-4.3-6.5c-1.1-0.4-2.3-0.3-3.5-0.3c-23.5,0-47,0-70.5,0
				c-3.6,0-7.2,0-10.7,0c-0.6,0-1.2,0-1.7,0c-3.5,0.3-6.1,3-6.1,6.1c0,3.3,2.7,6,6.4,6C-169.9,87.3-155.9,87.3-142,87.3z
				 M-226.5,51.1c-12.6,0-25.2,0-37.7,0c-1.7,0-3.3-0.1-5,0.1c-3,0.2-5.3,2.5-5.5,5.5c-0.2,3.1,1.7,5.7,4.8,6.3
				c1.2,0.2,2.5,0.2,3.7,0.2c25,0,50,0,75,0c2.2,0,4.3,0,6.5,0c2.2,0,4.1-0.7,5.4-2.6c1.3-1.9,1.6-4,0.5-6.1c-1.2-2.4-3.3-3.3-6-3.3
				C-198.7,51.1-212.6,51.1-226.5,51.1z M-226.7,207.8c12.2,0,24.3,0,36.5,0c2,0,4,0.1,6,0c3.6-0.2,6.1-2.7,6.1-6
				c0-3.2-2.4-5.7-5.9-6c-0.7-0.1-1.3,0-2,0c-27,0-54,0-81,0c-1.1,0-2.2,0-3.2,0.3c-3.5,0.9-5.4,4.4-4.3,7.8c0.8,2.6,3.3,4,6.8,4
				C-254,207.8-240.4,207.8-226.7,207.8z M-226.5,135.4c13.9,0,27.8,0,41.7,0c3.8,0,6.7-2.6,6.7-5.9c0-3.4-2.8-6.1-6.6-6.1
				c-27.9,0-55.8,0-83.7,0c-1.5,0-3,0.3-4.2,1.3c-1.9,1.7-2.7,4.6-1.7,7.1c0.8,2.2,3.2,3.6,6,3.6
				C-254.3,135.4-240.4,135.4-226.5,135.4z M-259.8,111.4c12.5,0,25,0,37.5,0c1,0,2,0,3-0.2c3.1-0.5,5.1-3.1,4.9-6.3
				c-0.1-3-2.4-5.3-5.4-5.6c-0.9-0.1-1.8-0.1-2.7-0.1c-24.8,0-49.6,0-74.5,0c-1,0-2,0-3,0.1c-2.8,0.3-4.8,2.6-5,5.4
				c-0.2,4,2.3,6.6,6.7,6.6C-285.5,111.4-272.6,111.4-259.8,111.4z M-259.9,38.9c2.6,0,5.2,0,7.7,0c10.5,0,21,0,31.5,0
				c4.1,0,6.7-3.2,6.1-7c-0.5-2.9-3.4-5-7.1-5c-25.4,0-50.8,0-76.2,0c-0.7,0-1.5,0-2.2,0.1c-3.2,0.6-5.3,3.5-4.9,6.8
				c0.4,3.1,2.8,5.1,6.4,5.1C-285.7,38.9-272.8,38.9-259.9,38.9z M-259.8,183.5c13,0,26,0,39,0c3.9,0,6.3-2.3,6.3-5.8
				c0-3.5-2.4-5.8-6.3-5.8c-7.5,0-15,0-22.5,0c-18.4,0-36.8,0-55.2,0c-2.1,0-4,0.4-5.3,2.2c-1.3,1.9-1.7,3.9-0.6,6.1
				c1.1,2.3,2.8,3.3,5.4,3.3C-286,183.4-272.9,183.5-259.8,183.5z M-166,171.6c-9,0-18,0-27,0c-1.4,0-2.8,0-4.2,0.2
				c-2.9,0.4-4.9,2.8-5,5.7c-0.1,2.9,1.7,5.4,4.6,6c1,0.2,2,0.3,3,0.3c19.1,0,38.1,0,57.2,0c1.1,0,2.2-0.1,3.2-0.3
				c2.7-0.6,4.6-3.1,4.6-5.8c0-2.7-1.9-5.2-4.6-5.8c-1-0.2-2.1-0.2-3.2-0.2C-147,171.6-156.5,171.6-166,171.6z M-166,99.3
				C-166,99.3-166,99.3-166,99.3c-9.7,0-19.3,0-29,0c-1.3,0-2.7-0.1-3.9,0.5c-2.5,1.2-3.8,3.9-3.3,6.6c0.5,2.8,2.8,4.8,5.9,4.8
				c6.4,0.1,12.8,0,19.2,0.1c13.4,0,26.8,0,40.2,0c2.3,0,4.3-0.5,5.8-2.3c1.4-1.8,1.9-3.9,0.8-6.1c-1.1-2.4-3.1-3.6-5.8-3.6
				C-146,99.3-156,99.3-166,99.3z M-166,39c9.7,0,19.5,0,29.2,0c1.7,0,3.3-0.1,4.7-1.2c2-1.7,2.9-4.2,2.1-6.5
				c-1-2.9-3.2-4.4-6.8-4.4c-19.5,0-39,0-58.5,0c-4.3,0-7.1,2.4-7.1,6.1c0,2.8,2.2,6.2,7,6.1C-185.5,38.8-175.8,39-166,39z
				 M-272,87.3c8.8,0,17.7,0,26.5,0c4,0,6.9-2.6,7-6c0-3.7-2.8-6.4-6.9-6.4c-17.6,0-35.1,0-52.7,0c-4.2,0-6.9,2.5-6.9,6.3
				c0,3.7,2.8,6.1,7,6.1C-289.3,87.3-280.6,87.3-272,87.3z M-272,231.9C-272,231.9-272,231.9-272,231.9c8.8,0,17.7,0,26.5,0
				c4.2,0,6.8-2.3,6.9-5.9c0.1-3.6-2.6-6.1-6.7-6.1c-17.7,0-35.3,0-53,0c-1.2,0-2.3,0-3.4,0.6c-2.6,1.3-3.8,4.1-3.2,6.9
				c0.6,2.6,2.9,4.4,5.9,4.5C-290,231.9-281,231.9-272,231.9z M-271.8,159.5c8.8,0,17.6,0,26.5,0c4.1,0,6.8-2.4,6.7-6.1
				c0-3.4-2.8-6-6.6-6c-17.7,0-35.5,0-53.2,0c-4.2,0-6.7,2.4-6.6,6.2c0,3.7,2.5,5.9,6.8,5.9C-289.4,159.5-280.6,159.5-271.8,159.5z
				 M-135.7,123.4c-7.7,0-15.5,0-23.2,0c-1,0-2-0.1-3,0.3c-2.9,1.1-4.5,3.9-4,7c0.5,3,3,4.8,6.6,4.9c15.6,0,31.2,0,46.7,0
				c4.4,0,7-2.4,6.9-6.2c0-3.6-2.7-5.9-6.9-5.9C-120.2,123.4-128,123.4-135.7,123.4z M-163.1,231.8c7,0,14,0,21,0
				c3.8,0,6.3-2.5,6.2-6c0-3.4-2.4-5.9-6.1-5.9c-14-0.1-28,0-42,0c-1.8,0-3.4,0.6-4.7,2c-1.6,1.9-2,4-1,6.3c1,2.4,3,3.6,5.5,3.6
				C-177.1,231.8-170.1,231.8-163.1,231.8z M-90.5,171.7c-6.8,0-13.7,0-20.5,0c-1.9,0-3.6,0.4-5,1.8c-1.7,1.8-2.1,4-1.2,6.3
				c1,2.5,3,3.8,5.6,3.8c14,0,28,0.1,42,0c3.9,0,6.3-2.6,6.2-6c-0.1-3.6-2.5-5.8-6.7-5.8C-76.9,171.7-83.7,171.7-90.5,171.7z
				 M-148.2,207.8c4,0,8,0.1,12,0c3.6-0.1,6.3-2.6,6.5-6c0.2-3-2.5-5.7-6.1-6c-8.1-0.6-16.1-0.6-24.2,0c-4,0.3-6.1,2.5-6,6.2
				c0.1,3.3,2.9,5.8,6.6,5.8C-155.7,207.9-151.9,207.9-148.2,207.8z M-214.4,87.3c2,0,4,0,6,0c3.4-0.1,5.9-2.5,6.2-5.7
				c0.3-3-2.2-6.2-5.4-6.4c-4.6-0.3-9.2-0.3-13.7,0c-3.1,0.2-5.4,3.3-5.2,6.3c0.2,3.2,2.8,5.6,6.1,5.7
				C-218.4,87.3-216.4,87.3-214.4,87.3z M-105.6,38.9C-105.6,38.9-105.6,38.9-105.6,38.9c2.2,0,4.3,0.1,6.5,0
				c3.1-0.2,5.4-2.5,5.6-5.6c0.2-3-1.9-5.9-5-6.2c-4.7-0.4-9.5-0.4-14.2,0c-3.1,0.3-5.2,3.2-5,6.2c0.2,3.1,2.7,5.5,5.9,5.6
				C-109.7,39-107.6,38.9-105.6,38.9z M-214.2,219.9C-214.2,219.9-214.2,219.9-214.2,219.9c-2.2,0-4.5-0.1-6.7,0c-3,0.1-5.6,3-5.5,6
				c0,3,2.6,5.8,5.6,5.9c4.2,0.1,8.5,0.1,12.7,0c3.4-0.1,5.6-2.6,5.6-6c0-3.4-2.3-5.8-5.7-5.9C-210.2,219.9-212.2,219.9-214.2,219.9
				z M-214.4,159.4c1.9,0,3.8,0,5.7,0c3.7,0,6.1-2.1,6.2-5.4c0.2-3.8-2-6.4-5.9-6.6c-3.7-0.2-7.5-0.1-11.2,0c-0.9,0-1.8,0.2-2.7,0.5
				c-2.8,0.9-4.6,3.6-4.1,6.3c0.5,3.1,2.6,5.1,5.8,5.2C-218.6,159.5-216.5,159.4-214.4,159.4z M-114.6,231.8
				C-114.6,231.8-114.6,231.9-114.6,231.8c1.1,0,2.2,0.1,3.2,0c3.1-0.2,5.4-2.4,5.7-5.2c0.3-3.3-1.5-6-4.7-6.6c-2.9-0.6-6-0.6-8.9,0
				c-2.8,0.6-4.9,3.5-4.6,6.3c0.2,2.9,2.6,5.3,5.5,5.5C-117.1,231.9-115.8,231.8-114.6,231.8z M-296.1,207.8c1.1,0,2.2,0,3.2,0
				c3.4-0.2,6-2.8,6-6.1c0-3.1-2.6-5.9-5.8-6.1c-2.2-0.1-4.5-0.2-6.7,0c-3.4,0.3-5.7,3-5.6,6.4c0.1,3.3,2.5,5.6,5.9,5.8
				C-298.1,207.9-297.1,207.8-296.1,207.8z M-296.3,63.2c1.5-0.1,2.8,0,4-0.2c3.3-0.5,5.4-3.2,5.2-6.3c-0.2-3.1-2.6-5.5-5.9-5.6
				c-2.2-0.1-4.3-0.1-6.5,0c-3,0.2-5.4,2.5-5.6,5.4c-0.2,3.2,1.6,5.7,4.8,6.3C-298.8,63.2-297.4,63.1-296.3,63.2z M-295.9,123.4
				c-1.2,0-2.3-0.1-3.5,0c-3.3,0.2-5.6,2.6-5.6,5.8c-0.1,3.3,2,5.8,5.3,6.1c2.5,0.2,5,0.2,7.5,0c3.2-0.3,5.4-3,5.3-6.1
				c-0.1-3.2-2.4-5.6-5.7-5.8C-293.7,123.3-294.8,123.4-295.9,123.4z"/>
			<path class="st3" d="M-371.4,2.4c13,0,25.9,0,38.9,0c1,0,2.2-0.4,3.1,0.6c0,0.9,0.1,1.8,0.1,2.7c0,89.8,0,179.6,0,269.4
				c0,1.1-0.1,2.2-0.2,3.2c-14,0-28,0-42,0c0-90.7,0-181.3,0-272C-371.5,5.1-371.5,3.7-371.4,2.4z M-350.3,87.3c0.9,0,1.8,0,2.7,0
				c3.4-0.1,6.1-2.6,6.3-5.8c0.2-2.9-2.3-6-5.5-6.3c-2.4-0.2-4.8-0.2-7.2,0c-3.5,0.3-5.7,3.2-5.5,6.5c0.2,3.1,2.8,5.5,6.2,5.6
				C-352.3,87.3-351.3,87.3-350.3,87.3z M-350.4,51c-1.1,0-2.2-0.1-3.2,0c-3.1,0.2-5.6,2.5-5.8,5.5c-0.3,3.2,1.6,5.9,4.9,6.5
				c2.9,0.5,5.8,0.6,8.6-0.1c2.9-0.6,4.9-3.5,4.7-6.2c-0.3-3-2.7-5.4-5.7-5.6C-348.1,51-349.2,51-350.4,51z M-350.3,207.8
				c1,0,2,0,3,0c3.3-0.2,5.9-2.6,6.1-5.8c0.2-2.9-2.4-6.1-5.6-6.3c-2.4-0.2-4.8-0.2-7.2,0c-3.4,0.4-5.5,3.1-5.4,6.4
				c0.1,3.2,2.7,5.6,6.1,5.7C-352.3,207.9-351.3,207.8-350.3,207.8z M-350.5,171.7C-350.5,171.6-350.5,171.6-350.5,171.7
				c-1.2-0.1-2.3-0.2-3.5,0c-3,0.3-5.3,2.7-5.5,5.5c-0.2,3.2,1.6,5.7,4.8,6.3c2.8,0.6,5.6,0.5,8.4,0c2.9-0.5,5.1-3.2,5-6
				c-0.1-2.9-2.3-5.4-5.3-5.8C-347.8,171.5-349.1,171.7-350.5,171.7z M-350.5,244C-350.5,244-350.5,244-350.5,244
				c-1.1,0-2.2-0.1-3.2,0c-2.9,0.2-5.4,2.5-5.7,5.3c-0.3,3.1,1.5,5.9,4.6,6.5c3,0.6,6,0.6,8.9,0c2.8-0.6,4.9-3.5,4.7-6.3
				c-0.3-2.9-2.6-5.3-5.5-5.6C-348,243.9-349.3,244-350.5,244z M-350.4,111.3C-350.4,111.3-350.4,111.3-350.4,111.3
				c1.2,0,2.5,0.1,3.7,0c3.1-0.3,5.6-3.2,5.5-6.1c-0.1-3.1-2.6-5.6-5.8-5.8c-2.2-0.1-4.5-0.1-6.7,0c-3.3,0.1-5.6,2.5-5.7,5.7
				c-0.1,3.3,2.2,5.9,5.5,6.2C-352.8,111.4-351.6,111.3-350.4,111.3z M-350.5,38.9c1.2,0,2.3,0.1,3.5,0c3.1-0.2,5.5-2.5,5.8-5.5
				c0.3-2.7-1.8-5.7-4.7-6.2c-2.9-0.5-6-0.6-8.9,0c-3.1,0.6-4.9,3.3-4.6,6.5c0.3,2.9,2.6,5.1,5.7,5.3
				C-352.7,39-351.6,38.9-350.5,38.9z M-350.3,219.9C-350.3,219.9-350.3,219.9-350.3,219.9c-1.3,0-2.7-0.1-4,0
				c-3.2,0.4-5.3,3-5.2,6.2c0.1,3,2.5,5.5,5.6,5.7c2.3,0.1,4.7,0.1,7,0c3.1-0.2,5.7-2.9,5.7-5.9c0-3-2.5-5.7-5.5-6
				C-347.9,219.8-349.1,219.9-350.3,219.9z M-350.5,159.5C-350.5,159.5-350.5,159.5-350.5,159.5c1.2,0,2.5,0.1,3.7,0
				c2.8-0.2,5-2.5,5.4-5.3c0.4-2.5-1.4-5.5-4-6.2c-3.3-0.9-6.8-0.9-10.1,0c-2.8,0.7-4.4,3.5-4,6.4c0.3,2.7,2.5,4.9,5.2,5.2
				C-353,159.6-351.7,159.5-350.5,159.5z M-350.5,135.4C-350.5,135.4-350.5,135.4-350.5,135.4c1.1,0,2.2,0.1,3.2,0
				c3.5-0.2,6.1-3,6-6.1c-0.1-3.3-2.7-5.8-6.2-5.9c-2.1-0.1-4.2-0.1-6.2,0c-3.2,0.1-5.7,2.7-5.8,5.7c-0.1,3.3,2.1,5.9,5.5,6.3
				C-352.8,135.5-351.7,135.4-350.5,135.4z"/>
			<path class="st4" d="M-114.8,51c14.7,0,29.5,0,44.2,0c2.3,0,4.3,0.6,5.9,2.2c2.9,3.2,1.3,8.4-2.9,9.6c-1.3,0.4-2.6,0.5-3.9,0.5
				c-28.8,0-57.6,0-86.4,0c-2.5,0-4.9-0.4-6.6-2.3c-1.5-1.7-2-3.8-1.2-5.8c0.9-2.4,2.8-4,5.5-4.1c2-0.1,4,0,6,0
				C-141.1,51-127.9,51-114.8,51z"/>
			<path class="st5" d="M-138.8,159.5c-14.9,0-29.8,0-44.7,0c-4.5,0-7.4-3.3-6.5-7.1c0.6-2.5,2.1-4.1,4.7-4.6c1-0.2,2-0.2,3-0.2
				c29,0,58,0,87,0c0.8,0,1.7,0,2.5,0.1c3.4,0.5,5.5,3,5.3,6.4c-0.2,3.1-2.6,5.5-6,5.5c-9.2,0.1-18.5,0-27.7,0
				C-127.1,159.5-133,159.5-138.8,159.5z"/>
			<path class="st6" d="M-142,87.3c-14,0-28,0-42,0c-3.6,0-6.3-2.7-6.4-6c0-3.2,2.6-5.9,6.1-6.1c0.6,0,1.2,0,1.7,0
				c3.6,0,7.2,0,10.7,0c23.5,0,47,0,70.5,0c1.2,0,2.3-0.1,3.5,0.3c2.9,0.9,4.7,3.6,4.3,6.5c-0.4,2.9-2.7,5.2-5.7,5.3
				c-3.5,0.1-7,0-10.5,0C-120.5,87.3-131.2,87.3-142,87.3z"/>
			<path class="st5" d="M-226.5,51.1c13.9,0,27.8,0,41.7,0c2.6,0,4.7,0.9,6,3.3c1.1,2.1,0.9,4.2-0.5,6.1c-1.3,1.9-3.2,2.5-5.4,2.6
				c-2.2,0-4.3,0-6.5,0c-25,0-50,0-75,0c-1.2,0-2.5,0-3.7-0.2c-3.1-0.6-5.1-3.2-4.8-6.3c0.2-3,2.5-5.3,5.5-5.5
				c1.7-0.1,3.3-0.1,5-0.1C-251.7,51.1-239.1,51.1-226.5,51.1z"/>
			<path class="st5" d="M-226.7,207.8c-13.7,0-27.3,0-41,0c-3.5,0-5.9-1.5-6.8-4c-1.1-3.4,0.7-6.9,4.3-7.8c1-0.3,2.1-0.3,3.2-0.3
				c27,0,54,0,81,0c0.7,0,1.3,0,2,0c3.5,0.3,5.9,2.8,5.9,6c0,3.3-2.5,5.9-6.1,6c-2,0.1-4,0-6,0
				C-202.4,207.8-214.5,207.8-226.7,207.8z"/>
			<path class="st4" d="M-226.5,135.4c-13.9,0-27.8,0-41.7,0c-2.9,0-5.2-1.4-6-3.6c-0.9-2.4-0.2-5.4,1.7-7.1c1.2-1,2.6-1.3,4.2-1.3
				c27.9,0,55.8,0,83.7,0c3.8,0,6.6,2.7,6.6,6.1c0,3.4-2.9,5.9-6.7,5.9C-198.7,135.4-212.6,135.4-226.5,135.4z"/>
			<path class="st7" d="M-259.8,111.4c-12.8,0-25.7,0-38.5,0c-4.4,0-6.9-2.5-6.7-6.6c0.2-2.8,2.2-5,5-5.4c1-0.1,2-0.1,3-0.1
				c24.8,0,49.6,0,74.5,0c0.9,0,1.8,0,2.7,0.1c3,0.3,5.2,2.6,5.4,5.6c0.1,3.1-1.9,5.7-4.9,6.3c-1,0.2-2,0.2-3,0.2
				C-234.8,111.4-247.3,111.4-259.8,111.4z"/>
			<path class="st4" d="M-259.9,38.9c-12.9,0-25.8,0-38.7,0c-3.6,0-6-2-6.4-5.1c-0.4-3.2,1.7-6.1,4.9-6.8c0.7-0.1,1.5-0.1,2.2-0.1
				c25.4,0,50.8,0,76.2,0c3.7,0,6.6,2,7.1,5c0.6,3.9-2,7-6.1,7c-10.5,0-21,0-31.5,0C-254.7,38.9-257.3,38.9-259.9,38.9z"/>
			<path class="st4" d="M-259.8,183.5c-13.1,0-26.2,0-39.2,0c-2.6,0-4.3-1.1-5.4-3.3c-1.1-2.2-0.7-4.2,0.6-6.1
				c1.3-1.8,3.1-2.2,5.3-2.2c18.4,0,36.8,0,55.2,0c7.5,0,15,0,22.5,0c3.9,0,6.3,2.3,6.3,5.8c0,3.5-2.4,5.8-6.3,5.8
				C-233.8,183.5-246.8,183.5-259.8,183.5z"/>
			<path class="st8" d="M-166,171.6c9.5,0,19,0,28.5,0c1.1,0,2.2,0,3.2,0.2c2.7,0.6,4.6,3.1,4.6,5.8c0,2.7-2,5.2-4.6,5.8
				c-1,0.2-2.1,0.3-3.2,0.3c-19.1,0-38.1,0-57.2,0c-1,0-2-0.1-3-0.3c-2.9-0.7-4.7-3.1-4.6-6c0.1-2.9,2.1-5.2,5-5.7
				c1.4-0.2,2.8-0.2,4.2-0.2C-184,171.6-175,171.6-166,171.6z"/>
			<path class="st8" d="M-166,99.3c10,0,20,0,30,0c2.7,0,4.6,1.2,5.8,3.6c1,2.2,0.6,4.2-0.8,6.1c-1.5,1.9-3.5,2.3-5.8,2.3
				c-13.4,0-26.8,0-40.2,0c-6.4,0-12.8,0-19.2-0.1c-3.1,0-5.3-2-5.9-4.8c-0.5-2.8,0.8-5.4,3.3-6.6c1.3-0.6,2.6-0.5,3.9-0.5
				C-185.3,99.3-175.6,99.3-166,99.3C-166,99.3-166,99.3-166,99.3z"/>
			<path class="st7" d="M-166,39c-9.7,0-19.5-0.1-29.2,0.1c-4.9,0.1-7-3.2-7-6.1c0-3.6,2.7-6,7.1-6.1c19.5,0,39,0,58.5,0
				c3.6,0,5.8,1.5,6.8,4.4c0.8,2.3-0.1,4.8-2.1,6.5c-1.4,1.2-3,1.2-4.7,1.2C-146.5,39-156.3,39-166,39z"/>
			<path class="st4" d="M-272,87.3c-8.7,0-17.3,0-26,0c-4.2,0-7-2.4-7-6.1c0-3.7,2.6-6.3,6.9-6.3c17.6,0,35.1,0,52.7,0
				c4.1,0,6.9,2.7,6.9,6.4c0,3.4-3,6-7,6C-254.3,87.3-263.2,87.3-272,87.3z"/>
			<path class="st8" d="M-272,231.9c-9,0-18,0-27,0c-3,0-5.3-1.8-5.9-4.5c-0.7-2.9,0.6-5.6,3.2-6.9c1.1-0.6,2.2-0.6,3.4-0.6
				c17.7,0,35.3,0,53,0c4.1,0,6.8,2.5,6.7,6.1c-0.1,3.6-2.7,5.9-6.9,5.9C-254.3,231.9-263.1,231.9-272,231.9
				C-272,231.9-272,231.9-272,231.9z"/>
			<path class="st7" d="M-271.8,159.5c-8.8,0-17.6,0-26.5,0c-4.3,0-6.8-2.2-6.8-5.9c0-3.7,2.5-6.1,6.6-6.2c17.7,0,35.5,0,53.2,0
				c3.8,0,6.6,2.6,6.6,6c0,3.6-2.6,6-6.7,6.1C-254.1,159.5-262.9,159.5-271.8,159.5z"/>
			<path class="st7" d="M-135.7,123.4c7.7,0,15.5,0,23.2,0c4.2,0,6.8,2.3,6.9,5.9c0,3.8-2.5,6.2-6.9,6.2c-15.6,0-31.2,0-46.7,0
				c-3.7,0-6.1-1.9-6.6-4.9c-0.5-3.1,1.1-5.9,4-7c1-0.4,2-0.3,3-0.3C-151.2,123.4-143.5,123.4-135.7,123.4z"/>
			<path class="st5" d="M-163.1,231.8c-7,0-14,0-21,0c-2.6,0-4.5-1.2-5.5-3.6c-1-2.3-0.6-4.4,1-6.3c1.2-1.4,2.8-2,4.7-2
				c14,0,28,0,42,0c3.7,0,6.1,2.5,6.1,5.9c0,3.5-2.4,6-6.2,6C-149.1,231.9-156.1,231.8-163.1,231.8z"/>
			<path class="st5" d="M-90.5,171.7c6.8,0,13.7,0,20.5,0c4.1,0,6.6,2.2,6.7,5.8c0.1,3.5-2.3,6-6.2,6c-14,0.1-28,0.1-42,0
				c-2.7,0-4.7-1.2-5.6-3.8c-0.9-2.3-0.5-4.4,1.2-6.3c1.3-1.5,3.1-1.9,5-1.8C-104.2,171.7-97.3,171.7-90.5,171.7z"/>
			<path class="st4" d="M-148.2,207.8c-3.7,0-7.5,0-11.2,0c-3.7,0-6.5-2.6-6.6-5.8c-0.1-3.6,2.1-5.9,6-6.2c8.1-0.6,16.1-0.6,24.2,0
				c3.6,0.3,6.2,3,6.1,6c-0.2,3.4-2.9,5.9-6.5,6C-140.2,207.9-144.2,207.8-148.2,207.8z"/>
			<path class="st9" d="M-214.4,87.3c-2,0-4,0-6,0c-3.3-0.1-5.9-2.5-6.1-5.7c-0.2-3,2-6.1,5.2-6.3c4.6-0.3,9.2-0.3,13.7,0
				c3.2,0.2,5.7,3.5,5.4,6.4c-0.3,3.2-2.8,5.6-6.2,5.7C-210.4,87.3-212.4,87.3-214.4,87.3z"/>
			<path class="st8" d="M-105.6,38.9c-2.1,0-4.2,0.1-6.2,0c-3.2-0.1-5.7-2.5-5.9-5.6c-0.2-3,1.9-5.9,5-6.2c4.7-0.5,9.5-0.4,14.2,0
				c3.1,0.3,5.2,3.1,5,6.2c-0.2,3.1-2.5,5.5-5.6,5.6C-101.2,39-103.4,38.9-105.6,38.9C-105.6,38.9-105.6,38.9-105.6,38.9z"/>
			<path class="st4" d="M-214.2,219.9c2,0,4,0,6,0c3.4,0.1,5.7,2.5,5.7,5.9c0,3.4-2.2,5.9-5.6,6c-4.2,0.1-8.5,0.1-12.7,0
				c-3-0.1-5.6-2.9-5.6-5.9c0-3,2.5-5.9,5.5-6C-218.7,219.8-216.4,219.9-214.2,219.9C-214.2,219.9-214.2,219.9-214.2,219.9z"/>
			<path class="st4" d="M-214.4,159.4c-2.1,0-4.2,0-6.2,0c-3.1-0.1-5.3-2.1-5.8-5.2c-0.4-2.7,1.3-5.4,4.1-6.3
				c0.9-0.3,1.8-0.5,2.7-0.5c3.7,0,7.5-0.1,11.2,0c3.9,0.2,6.1,2.7,5.9,6.6c-0.1,3.3-2.5,5.4-6.2,5.4
				C-210.6,159.5-212.5,159.4-214.4,159.4z"/>
			<path class="st9" d="M-114.6,231.8c-1.2,0-2.5,0.1-3.7,0c-2.9-0.2-5.3-2.6-5.5-5.5c-0.2-2.8,1.8-5.7,4.6-6.3c2.9-0.6,6-0.6,8.9,0
				c3.2,0.7,5,3.4,4.7,6.6c-0.3,2.8-2.7,5-5.7,5.2C-112.4,231.9-113.5,231.9-114.6,231.8C-114.6,231.9-114.6,231.8-114.6,231.8z"/>
			<path class="st9" d="M-296.1,207.8c-1,0-2,0-3,0c-3.4-0.2-5.8-2.5-5.9-5.8c-0.1-3.4,2.2-6.1,5.6-6.4c2.2-0.2,4.5-0.2,6.7,0
				c3.2,0.2,5.8,3,5.8,6.1c0,3.3-2.6,5.9-6,6.1C-293.9,207.9-295,207.8-296.1,207.8z"/>
			<path class="st5" d="M-296.3,63.2c-1.1-0.1-2.5-0.1-3.9-0.3c-3.1-0.6-5-3.2-4.8-6.3c0.2-2.9,2.5-5.3,5.6-5.4
				c2.2-0.1,4.3-0.1,6.5,0c3.3,0.1,5.7,2.5,5.9,5.6c0.2,3.1-2,5.8-5.2,6.3C-293.4,63.2-294.7,63.1-296.3,63.2z"/>
			<path class="st8" d="M-295.9,123.4c1.1,0,2.2-0.1,3.2,0c3.2,0.2,5.6,2.6,5.7,5.8c0.1,3.1-2.1,5.8-5.3,6.1c-2.5,0.2-5,0.2-7.5,0
				c-3.3-0.3-5.3-2.9-5.3-6.1c0.1-3.2,2.4-5.6,5.6-5.8C-298.2,123.3-297,123.4-295.9,123.4z"/>
			<path class="st10" d="M-281-15.2c-9.9-0.1-18.1-8.3-18-18.2c0-9.9,8.3-18,18.3-18c9.9,0,18.1,8.4,18,18.3
				C-262.8-23.2-271-15.2-281-15.2z"/>
			<path class="st11" d="M-353.4-33.3c0-9.8,8.3-18.2,18.1-18.1c9.9,0,18.2,8.3,18.2,18.1c0,9.9-8.2,18.1-18.1,18.1
				C-345.2-15.2-353.4-23.4-353.4-33.3z"/>
			<path class="st12" d="M-208.4-33.3c0,10-8.1,18.1-18.1,18.1c-9.9,0-18.1-8.2-18-18.2c0-9.8,8.2-18,18-18
				C-216.6-51.5-208.5-43.3-208.4-33.3z"/>
			<path class="st13" d="M-350.3,87.3c-1,0-2,0-3,0c-3.4-0.1-6-2.5-6.2-5.6c-0.2-3.4,2-6.2,5.5-6.5c2.4-0.2,4.8-0.2,7.2,0
				c3.2,0.3,5.7,3.4,5.5,6.3c-0.2,3.2-2.9,5.7-6.3,5.8C-348.5,87.3-349.4,87.3-350.3,87.3z"/>
			<path class="st13" d="M-350.4,51c1.2,0,2.3-0.1,3.5,0c3,0.2,5.4,2.7,5.7,5.6c0.2,2.7-1.8,5.6-4.7,6.2c-2.9,0.6-5.8,0.6-8.6,0.1
				c-3.3-0.6-5.1-3.2-4.9-6.5c0.2-2.9,2.7-5.3,5.8-5.5C-352.6,51-351.5,51-350.4,51z"/>
			<path class="st13" d="M-350.3,207.8c-1,0-2,0-3,0c-3.4-0.2-6-2.6-6.1-5.7c-0.1-3.3,2-6,5.4-6.4c2.4-0.3,4.8-0.3,7.2,0
				c3.2,0.3,5.8,3.4,5.6,6.3c-0.2,3.2-2.8,5.6-6.1,5.8C-348.3,207.9-349.3,207.8-350.3,207.8z"/>
			<path class="st13" d="M-350.5,171.7c1.3,0,2.7-0.2,4,0c3,0.4,5.2,3,5.3,5.8c0.1,2.8-2.1,5.5-5,6c-2.8,0.5-5.6,0.6-8.4,0
				c-3.2-0.6-5-3.2-4.8-6.3c0.2-2.9,2.5-5.2,5.5-5.5C-352.8,171.5-351.6,171.6-350.5,171.7C-350.5,171.6-350.5,171.6-350.5,171.7z"
				/>
			<path class="st14" d="M-350.5,244c1.2,0,2.5-0.1,3.7,0c2.9,0.2,5.2,2.7,5.5,5.6c0.3,2.7-1.9,5.7-4.7,6.3c-3,0.6-6,0.6-8.9,0
				c-3-0.6-4.9-3.4-4.6-6.5c0.3-2.8,2.7-5.2,5.7-5.3C-352.7,243.9-351.6,244-350.5,244C-350.5,244-350.5,244-350.5,244z"/>
			<path class="st14" d="M-350.4,111.3c-1.2,0-2.3,0.1-3.5,0c-3.3-0.3-5.6-3-5.5-6.2c0.1-3.2,2.4-5.6,5.7-5.7c2.2-0.1,4.5-0.1,6.7,0
				c3.2,0.2,5.6,2.7,5.8,5.8c0.1,2.9-2.4,5.8-5.5,6.1C-347.9,111.4-349.2,111.3-350.4,111.3C-350.4,111.3-350.4,111.3-350.4,111.3z"
				/>
			<path class="st14" d="M-350.5,38.9c-1.1,0-2.2,0.1-3.2,0c-3.1-0.2-5.4-2.3-5.7-5.3c-0.3-3.1,1.5-5.9,4.6-6.5c2.9-0.6,6-0.5,8.9,0
				c2.8,0.5,4.9,3.6,4.7,6.2c-0.3,3-2.7,5.3-5.8,5.5C-348.2,39-349.4,38.9-350.5,38.9z"/>
			<path class="st14" d="M-350.3,219.9c1.2,0,2.3-0.1,3.5,0c3.1,0.3,5.6,3,5.5,6c0,3-2.6,5.7-5.7,5.9c-2.3,0.1-4.7,0.1-7,0
				c-3.1-0.2-5.4-2.7-5.6-5.7c-0.1-3.2,2-5.9,5.2-6.2C-352.9,219.8-351.6,219.9-350.3,219.9C-350.3,219.9-350.3,219.9-350.3,219.9z"
				/>
			<path class="st14" d="M-350.5,159.5c-1.2,0-2.5,0.1-3.7,0c-2.8-0.3-4.9-2.5-5.2-5.2c-0.3-2.9,1.3-5.7,4-6.4
				c3.3-0.8,6.8-0.8,10.1,0c2.6,0.7,4.4,3.7,4,6.2c-0.4,2.9-2.6,5.1-5.4,5.3C-348,159.6-349.2,159.5-350.5,159.5
				C-350.5,159.5-350.5,159.5-350.5,159.5z"/>
			<path class="st14" d="M-350.5,135.4c-1.2,0-2.3,0.1-3.5,0c-3.3-0.3-5.6-3-5.5-6.3c0.1-3.1,2.6-5.6,5.8-5.7c2.1-0.1,4.2-0.1,6.2,0
				c3.5,0.1,6,2.6,6.2,5.9c0.1,3.1-2.5,5.9-6,6.1C-348.3,135.5-349.4,135.5-350.5,135.4C-350.5,135.4-350.5,135.4-350.5,135.4z"/>
		</g>
	</g>
</g>
<g id="Layer_2" class="st0">
	<g id="CvOrAz.tif" class="st1">
		
			<image style="overflow:visible;" width="1352" height="656" id="Layer_0_1_" xlink:href="37EA7701F920A4DB.png"  transform="matrix(0.2858 0 0 0.2858 356.0192 354.5977)">
		</image>
	</g>
</g>
<g id="Layer_3">
	<rect x="65.9" y="54" class="st2" width="361.2" height="346"/>
	<rect x="26.8" y="54" class="st3" width="39.1" height="346"/>
	
		<rect x="200.1" y="-173" transform="matrix(6.123234e-17 -1 1 6.123234e-17 200.1282 254.1447)" class="st15" width="54" height="400"/>
</g>
<g id="Layer_8">
</g>
<g id="Layer_4">
	<circle class="st11" cx="55.4" cy="27" r="15.7"/>
	<circle class="st10" cx="99.5" cy="27" r="15.7"/>
	<circle class="st12" cx="143.6" cy="27" r="15.7"/>
</g>
<g id="Text">
	<g id="bubbles">
		<path class="st16" d="M117.4,148.1H89.9c-3.7,0-6.6-3-6.6-6.6v0c0-3.7,3-6.6,6.6-6.6h27.6c3.7,0,6.6,3,6.6,6.6v0
			C124.1,145.1,121.1,148.1,117.4,148.1z"/>
		<path class="st16" d="M117.4,88.1H89.9c-3.7,0-6.6-3-6.6-6.6v0c0-3.7,3-6.6,6.6-6.6h27.6c3.7,0,6.6,3,6.6,6.6v0
			C124.1,85.1,121.1,88.1,117.4,88.1z"/>
		<path class="st16" d="M167.6,148.1H142c-3.7,0-6.6-3-6.6-6.6v0c0-3.7,3-6.6,6.6-6.6h25.6c3.7,0,6.6,3,6.6,6.6v0
			C174.2,145.1,171.3,148.1,167.6,148.1z"/>
		<path class="st16" d="M157.7,188.1h-27.5c-3.7,0-6.6-3-6.6-6.6l0,0c0-3.7,3-6.6,6.6-6.6h27.5c3.7,0,6.6,3,6.6,6.6l0,0
			C164.3,185.1,161.3,188.1,157.7,188.1z"/>
		<path class="st16" d="M138.8,167.7h-27.5c-3.7,0-6.6-3-6.6-6.6v0c0-3.7,3-6.6,6.6-6.6h27.5c3.7,0,6.6,3,6.6,6.6v0
			C145.5,164.7,142.5,167.7,138.8,167.7z"/>
		<path class="st16" d="M147.3,267.9h-14.8c-3.7,0-6.6-3-6.6-6.6l0,0c0-3.7,3-6.6,6.6-6.6h14.8c3.7,0,6.6,3,6.6,6.6l0,0
			C153.9,264.9,150.9,267.9,147.3,267.9z"/>
		<path class="st17" d="M185.4,267.9h-14.8c-3.7,0-6.6-3-6.6-6.6l0,0c0-3.7,3-6.6,6.6-6.6h14.8c3.7,0,6.6,3,6.6,6.6l0,0
			C192,264.9,189.1,267.9,185.4,267.9z"/>
		<path class="st18" d="M247.1,188.1h-27.5c-3.7,0-6.6-3-6.6-6.6v0c0-3.7,3-6.6,6.6-6.6h27.5c3.7,0,6.6,3,6.6,6.6v0
			C253.7,185.1,250.8,188.1,247.1,188.1z"/>
		<path class="st18" d="M321.5,228.3H294c-3.7,0-6.6-3-6.6-6.6l0,0c0-3.7,3-6.6,6.6-6.6h27.5c3.7,0,6.6,3,6.6,6.6l0,0
			C328.1,225.3,325.2,228.3,321.5,228.3z"/>
		<path class="st19" d="M261.8,247.8h-27.1c-3.7,0-6.6-3-6.6-6.6v0c0-3.7,3-6.6,6.6-6.6h27.1c3.7,0,6.6,3,6.6,6.6v0
			C268.4,244.9,265.4,247.8,261.8,247.8z"/>
		<path class="st19" d="M357.1,167.9h-11.6c-3.7,0-6.6-3-6.6-6.6v0c0-3.7,3-6.6,6.6-6.6h11.6c3.7,0,6.6,3,6.6,6.6v0
			C363.8,164.9,360.8,167.9,357.1,167.9z"/>
		<path class="st19" d="M245.4,148.1h-11.6c-3.7,0-6.6-3-6.6-6.6v0c0-3.7,3-6.6,6.6-6.6h11.6c3.7,0,6.6,3,6.6,6.6v0
			C252,145.1,249.1,148.1,245.4,148.1z"/>
		<path class="st19" d="M144.1,327.9h-11.6c-3.7,0-6.6-3-6.6-6.6l0,0c0-3.7,3-6.6,6.6-6.6h11.6c3.7,0,6.6,3,6.6,6.6l0,0
			C150.7,325,147.7,327.9,144.1,327.9z"/>
		<path class="st19" d="M123.4,347.9h-11.6c-3.7,0-6.6-3-6.6-6.6v0c0-3.7,3-6.6,6.6-6.6h11.6c3.7,0,6.6,3,6.6,6.6v0
			C130,344.9,127.1,347.9,123.4,347.9z"/>
		<path class="st19" d="M101.4,368H89.7c-3.7,0-6.6-3-6.6-6.6l0,0c0-3.7,3-6.6,6.6-6.6h11.6c3.7,0,6.6,3,6.6,6.6l0,0
			C108,365,105,368,101.4,368z"/>
		<path class="st20" d="M354.8,267.9h-15c-3.7,0-6.6-3-6.6-6.6l0,0c0-3.7,3-6.6,6.6-6.6h15c3.7,0,6.6,3,6.6,6.6l0,0
			C361.4,264.9,358.5,267.9,354.8,267.9z"/>
		<path class="st16" d="M193.2,168.5h-31.2c-3.7,0-6.6-3-6.6-6.6v0c0-3.7,3-6.6,6.6-6.6h31.2c3.7,0,6.6,3,6.6,6.6v0
			C199.9,165.5,196.9,168.5,193.2,168.5z"/>
		<path class="st21" d="M263.4,287.8h-31.2c-3.7,0-6.6-3-6.6-6.6l0,0c0-3.7,3-6.6,6.6-6.6h31.2c3.7,0,6.6,3,6.6,6.6l0,0
			C270,284.8,267.1,287.8,263.4,287.8z"/>
		<path class="st21" d="M278.6,208.5H245c-3.7,0-6.6-3-6.6-6.6v-0.7c0-3.7,3-6.6,6.6-6.6h33.6c3.7,0,6.6,3,6.6,6.6v0.7
			C285.2,205.5,282.2,208.5,278.6,208.5z"/>
		<path class="st21" d="M412.8,228.6h-33.6c-3.7,0-6.6-3-6.6-6.6v-0.7c0-3.7,3-6.6,6.6-6.6h33.6c3.7,0,6.6,3,6.6,6.6v0.7
			C419.4,225.7,416.4,228.6,412.8,228.6z"/>
		<path class="st21" d="M226.7,228.6h-43.6c-3.7,0-6.6-3-6.6-6.6v-0.7c0-3.7,3-6.6,6.6-6.6h43.6c3.7,0,6.6,3,6.6,6.6v0.7
			C233.4,225.7,230.4,228.6,226.7,228.6z"/>
		<path class="st21" d="M270.7,308h-24.5c-3.7,0-6.6-3-6.6-6.6l0,0c0-3.7,3-6.6,6.6-6.6h24.5c3.7,0,6.6,3,6.6,6.6l0,0
			C277.4,305,274.4,308,270.7,308z"/>
		<path class="st21" d="M278,168.5h-17.3c-3.7,0-6.6-3-6.6-6.6v0c0-3.7,3-6.6,6.6-6.6H278c3.7,0,6.6,3,6.6,6.6v0
			C284.7,165.5,281.7,168.5,278,168.5z"/>
		<path class="st17" d="M210.5,148.1h-20.7c-3.7,0-6.6-3-6.6-6.6v0c0-3.7,3-6.6,6.6-6.6h20.7c3.7,0,6.6,3,6.6,6.6v0
			C217.1,145.1,214.2,148.1,210.5,148.1z"/>
		<path class="st17" d="M171.3,88.1h-30.5c-3.7,0-6.6-3-6.6-6.6v0c0-3.7,3-6.6,6.6-6.6h30.5c3.7,0,6.6,3,6.6,6.6v0
			C178,85.1,175,88.1,171.3,88.1z"/>
		<path class="st17" d="M269.1,88.1h-30.5c-3.7,0-6.6-3-6.6-6.6v0c0-3.7,3-6.6,6.6-6.6h30.5c3.7,0,6.6,3,6.6,6.6v0
			C275.8,85.1,272.8,88.1,269.1,88.1z"/>
		<path class="st17" d="M215.5,88.1h-20.7c-3.7,0-6.6-3-6.6-6.6v0c0-3.7,3-6.6,6.6-6.6h20.7c3.7,0,6.6,3,6.6,6.6v0
			C222.1,85.1,219.2,88.1,215.5,88.1z"/>
		<path class="st16" d="M117.4,107.7H89.9c-3.7,0-6.6-3-6.6-6.6v0c0-3.7,3-6.6,6.6-6.6h27.6c3.7,0,6.6,3,6.6,6.6v0
			C124.1,104.8,121.1,107.7,117.4,107.7z"/>
		<path class="st17" d="M171.3,107.7h-30.5c-3.7,0-6.6-3-6.6-6.6v0c0-3.7,3-6.6,6.6-6.6h30.5c3.7,0,6.6,3,6.6,6.6v0
			C178,104.8,175,107.7,171.3,107.7z"/>
		<path class="st17" d="M287.6,108.1h-48.3c-3.7,0-6.6-3-6.6-6.6v0c0-3.7,3-6.6,6.6-6.6h48.3c3.7,0,6.6,3,6.6,6.6v0
			C294.2,105.1,291.3,108.1,287.6,108.1z"/>
		<path class="st17" d="M216.4,108.1h-20.7c-3.7,0-6.6-3-6.6-6.6v0c0-3.7,3-6.6,6.6-6.6h20.7c3.7,0,6.6,3,6.6,6.6v0
			C223,105.1,220.1,108.1,216.4,108.1z"/>
		<path class="st17" d="M152.1,247.8h-20.7c-3.7,0-6.6-3-6.6-6.6v0c0-3.7,3-6.6,6.6-6.6h20.7c3.7,0,6.6,3,6.6,6.6v0
			C158.7,244.9,155.8,247.8,152.1,247.8z"/>
		<path class="st17" d="M152.1,208.1h-20.7c-3.7,0-6.6-3-6.6-6.6v0c0-3.7,3-6.6,6.6-6.6h20.7c3.7,0,6.6,3,6.6,6.6v0
			C158.7,205.1,155.8,208.1,152.1,208.1z"/>
		<path class="st16" d="M237.5,168.5h-20.7c-3.7,0-6.6-3-6.6-6.6v0c0-3.7,3-6.6,6.6-6.6h20.7c3.7,0,6.6,3,6.6,6.6v0
			C244.1,165.5,241.2,168.5,237.5,168.5z"/>
		<path class="st17" d="M322.2,167.7h-20.7c-3.7,0-6.6-3-6.6-6.6l0,0c0-3.7,3-6.6,6.6-6.6h20.7c3.7,0,6.6,3,6.6,6.6l0,0
			C328.9,164.8,325.9,167.7,322.2,167.7z"/>
		<path class="st22" d="M368.6,208.1h-20.7c-3.7,0-6.6-3-6.6-6.6v0c0-3.7,3-6.6,6.6-6.6h20.7c3.7,0,6.6,3,6.6,6.6v0
			C375.2,205.2,372.3,208.1,368.6,208.1z"/>
		<path class="st22" d="M270.7,228.3H250c-3.7,0-6.6-3-6.6-6.6l0,0c0-3.7,3-6.6,6.6-6.6h20.7c3.7,0,6.6,3,6.6,6.6l0,0
			C277.4,225.3,274.4,228.3,270.7,228.3z"/>
		<path class="st17" d="M173.4,287.8h-20.7c-3.7,0-6.6-3-6.6-6.6v0c0-3.7,3-6.6,6.6-6.6h20.7c3.7,0,6.6,3,6.6,6.6v0
			C180,284.8,177,287.8,173.4,287.8z"/>
		<path class="st20" d="M196.3,188.1h-15.5c-3.7,0-6.6-3-6.6-6.6l0,0c0-3.7,3-6.6,6.6-6.6h15.5c3.7,0,6.6,3,6.6,6.6l0,0
			C203,185.1,200,188.1,196.3,188.1z"/>
		<path class="st20" d="M158.9,228.3h-26.8c-3.7,0-6.6-3-6.6-6.6l0,0c0-3.7,3-6.6,6.6-6.6h26.8c3.7,0,6.6,3,6.6,6.6l0,0
			C165.5,225.3,162.6,228.3,158.9,228.3z"/>
		<path class="st16" d="M221.4,208.1h-11.8c-3.7,0-6.6-3-6.6-6.6v0c0-3.7,3-6.6,6.6-6.6h11.8c3.7,0,6.6,3,6.6,6.6v0
			C228,205.1,225.1,208.1,221.4,208.1z"/>
		<path class="st20" d="M186.2,208.1h-10.8c-3.7,0-6.6-3-6.6-6.6v0c0-3.7,3-6.6,6.6-6.6h10.8c3.7,0,6.6,3,6.6,6.6v0
			C192.8,205.1,189.9,208.1,186.2,208.1z"/>
		<path class="st20" d="M355.9,228.3H345c-3.7,0-6.6-3-6.6-6.6l0,0c0-3.7,3-6.6,6.6-6.6h10.8c3.7,0,6.6,3,6.6,6.6l0,0
			C362.5,225.3,359.6,228.3,355.9,228.3z"/>
		<path class="st22" d="M214.7,267.9h-6.3c-3.7,0-6.6-3-6.6-6.6l0,0c0-3.7,3-6.6,6.6-6.6h6.3c3.7,0,6.6,3,6.6,6.6l0,0
			C221.4,264.9,218.4,267.9,214.7,267.9z"/>
		<path class="st20" d="M209.5,287.8h-13.1c-3.7,0-6.6-3-6.6-6.6l0,0c0-3.7,3-6.6,6.6-6.6h13.1c3.7,0,6.6,3,6.6,6.6l0,0
			C216.1,284.8,213.2,287.8,209.5,287.8z"/>
		<path class="st19" d="M316.6,267.9h-6.3c-3.7,0-6.6-3-6.6-6.6l0,0c0-3.7,3-6.6,6.6-6.6h6.3c3.7,0,6.6,3,6.6,6.6l0,0
			C323.2,264.9,320.2,267.9,316.6,267.9z"/>
		<path class="st19" d="M385.4,267.9h-6.3c-3.7,0-6.6-3-6.6-6.6l0,0c0-3.7,3-6.6,6.6-6.6h6.3c3.7,0,6.6,3,6.6,6.6l0,0
			C392.1,264.9,389.1,267.9,385.4,267.9z"/>
		<path class="st20" d="M344.6,287.8h-6.3c-3.7,0-6.6-3-6.6-6.6v0c0-3.7,3-6.6,6.6-6.6h6.3c3.7,0,6.6,3,6.6,6.6v0
			C351.2,284.8,348.2,287.8,344.6,287.8z"/>
		<path class="st20" d="M286.8,267.9H238c-3.7,0-6.6-3-6.6-6.6l0,0c0-3.7,3-6.6,6.6-6.6h48.8c3.7,0,6.6,3,6.6,6.6l0,0
			C293.4,264.9,290.4,267.9,286.8,267.9z"/>
		<path class="st20" d="M335.6,287.8h-48.8c-3.7,0-6.6-3-6.6-6.6l0,0c0-3.7,3-6.6,6.6-6.6h48.8c3.7,0,6.6,3,6.6,6.6l0,0
			C342.2,284.8,339.2,287.8,335.6,287.8z"/>
		<path class="st20" d="M186.5,308h-33.9c-3.7,0-6.6-3-6.6-6.6l0,0c0-3.7,3-6.6,6.6-6.6h33.9c3.7,0,6.6,3,6.6,6.6l0,0
			C193.1,305,190.2,308,186.5,308z"/>
		<path class="st20" d="M321.2,308H294c-3.7,0-6.6-3-6.6-6.6l0,0c0-3.7,3-6.6,6.6-6.6h27.2c3.7,0,6.6,3,6.6,6.6l0,0
			C327.9,305,324.9,308,321.2,308z"/>
		<path class="st20" d="M222.8,308h-13.4c-3.7,0-6.6-3-6.6-6.6l0,0c0-3.7,3-6.6,6.6-6.6h13.4c3.7,0,6.6,3,6.6,6.6l0,0
			C229.5,305,226.5,308,222.8,308z"/>
		<path class="st20" d="M211.4,247.9h-37.1c-3.7,0-6.6-3-6.6-6.6v0c0-3.7,3-6.6,6.6-6.6h37.1c3.7,0,6.6,3,6.6,6.6v0
			C218,245,215,247.9,211.4,247.9z"/>
		<path class="st18" d="M306.8,247.7h-22.3c-3.7,0-6.6-3-6.6-6.6v0c0-3.7,3-6.6,6.6-6.6h22.3c3.7,0,6.6,3,6.6,6.6v0
			C313.4,244.7,310.5,247.7,306.8,247.7z"/>
		<path class="st18" d="M324.6,208.1h-22.3c-3.7,0-6.6-3-6.6-6.6v0c0-3.7,3-6.6,6.6-6.6h22.3c3.7,0,6.6,3,6.6,6.6v0
			C331.2,205.1,328.2,208.1,324.6,208.1z"/>
		<path class="st18" d="M351.6,247.7h-22.3c-3.7,0-6.6-3-6.6-6.6v0c0-3.7,3-6.6,6.6-6.6h22.3c3.7,0,6.6,3,6.6,6.6v0
			C358.2,244.7,355.3,247.7,351.6,247.7z"/>
		<path class="st18" d="M397.7,247.7h-22.3c-3.7,0-6.6-3-6.6-6.6v0c0-3.7,3-6.6,6.6-6.6h22.3c3.7,0,6.6,3,6.6,6.6v0
			C404.3,244.7,401.3,247.7,397.7,247.7z"/>
	</g>
	<g id="bubbles_copy">
		<path class="st23" d="M117.4,148.1H89.9c-3.7,0-6.6-3-6.6-6.6v0c0-3.7,3-6.6,6.6-6.6h27.6c3.7,0,6.6,3,6.6,6.6v0
			C124.1,145.1,121.1,148.1,117.4,148.1z"/>
		<path class="st23" d="M117.4,88.1H89.9c-3.7,0-6.6-3-6.6-6.6v0c0-3.7,3-6.6,6.6-6.6h27.6c3.7,0,6.6,3,6.6,6.6v0
			C124.1,85.1,121.1,88.1,117.4,88.1z"/>
		<path class="st23" d="M167.6,148.1H142c-3.7,0-6.6-3-6.6-6.6v0c0-3.7,3-6.6,6.6-6.6h25.6c3.7,0,6.6,3,6.6,6.6v0
			C174.2,145.1,171.3,148.1,167.6,148.1z"/>
		<path class="st23" d="M157.7,188.1h-27.5c-3.7,0-6.6-3-6.6-6.6l0,0c0-3.7,3-6.6,6.6-6.6h27.5c3.7,0,6.6,3,6.6,6.6l0,0
			C164.3,185.1,161.3,188.1,157.7,188.1z"/>
		<path class="st23" d="M138.8,167.7h-27.5c-3.7,0-6.6-3-6.6-6.6v0c0-3.7,3-6.6,6.6-6.6h27.5c3.7,0,6.6,3,6.6,6.6v0
			C145.5,164.7,142.5,167.7,138.8,167.7z"/>
		<path class="st23" d="M147.3,267.9h-14.8c-3.7,0-6.6-3-6.6-6.6l0,0c0-3.7,3-6.6,6.6-6.6h14.8c3.7,0,6.6,3,6.6,6.6l0,0
			C153.9,264.9,150.9,267.9,147.3,267.9z"/>
		<path class="st23" d="M185.4,267.9h-14.8c-3.7,0-6.6-3-6.6-6.6l0,0c0-3.7,3-6.6,6.6-6.6h14.8c3.7,0,6.6,3,6.6,6.6l0,0
			C192,264.9,189.1,267.9,185.4,267.9z"/>
		<path class="st23" d="M247.1,188.1h-27.5c-3.7,0-6.6-3-6.6-6.6v0c0-3.7,3-6.6,6.6-6.6h27.5c3.7,0,6.6,3,6.6,6.6v0
			C253.7,185.1,250.8,188.1,247.1,188.1z"/>
		<path class="st23" d="M321.5,228.3H294c-3.7,0-6.6-3-6.6-6.6l0,0c0-3.7,3-6.6,6.6-6.6h27.5c3.7,0,6.6,3,6.6,6.6l0,0
			C328.1,225.3,325.2,228.3,321.5,228.3z"/>
		<path class="st23" d="M261.8,247.8h-27.1c-3.7,0-6.6-3-6.6-6.6v0c0-3.7,3-6.6,6.6-6.6h27.1c3.7,0,6.6,3,6.6,6.6v0
			C268.4,244.9,265.4,247.8,261.8,247.8z"/>
		<path class="st23" d="M357.1,167.9h-11.6c-3.7,0-6.6-3-6.6-6.6v0c0-3.7,3-6.6,6.6-6.6h11.6c3.7,0,6.6,3,6.6,6.6v0
			C363.8,164.9,360.8,167.9,357.1,167.9z"/>
		<path class="st23" d="M245.4,148.1h-11.6c-3.7,0-6.6-3-6.6-6.6v0c0-3.7,3-6.6,6.6-6.6h11.6c3.7,0,6.6,3,6.6,6.6v0
			C252,145.1,249.1,148.1,245.4,148.1z"/>
		<path class="st23" d="M144.1,327.9h-11.6c-3.7,0-6.6-3-6.6-6.6l0,0c0-3.7,3-6.6,6.6-6.6h11.6c3.7,0,6.6,3,6.6,6.6l0,0
			C150.7,325,147.7,327.9,144.1,327.9z"/>
		<path class="st23" d="M123.4,347.9h-11.6c-3.7,0-6.6-3-6.6-6.6v0c0-3.7,3-6.6,6.6-6.6h11.6c3.7,0,6.6,3,6.6,6.6v0
			C130,344.9,127.1,347.9,123.4,347.9z"/>
		<path class="st23" d="M101.4,368H89.7c-3.7,0-6.6-3-6.6-6.6l0,0c0-3.7,3-6.6,6.6-6.6h11.6c3.7,0,6.6,3,6.6,6.6l0,0
			C108,365,105,368,101.4,368z"/>
		<path class="st23" d="M354.8,267.9h-15c-3.7,0-6.6-3-6.6-6.6l0,0c0-3.7,3-6.6,6.6-6.6h15c3.7,0,6.6,3,6.6,6.6l0,0
			C361.4,264.9,358.5,267.9,354.8,267.9z"/>
		<path class="st23" d="M193.2,168.5h-31.2c-3.7,0-6.6-3-6.6-6.6v0c0-3.7,3-6.6,6.6-6.6h31.2c3.7,0,6.6,3,6.6,6.6v0
			C199.9,165.5,196.9,168.5,193.2,168.5z"/>
		<path class="st23" d="M263.4,287.8h-31.2c-3.7,0-6.6-3-6.6-6.6l0,0c0-3.7,3-6.6,6.6-6.6h31.2c3.7,0,6.6,3,6.6,6.6l0,0
			C270,284.8,267.1,287.8,263.4,287.8z"/>
		<path class="st23" d="M278.6,208.5H245c-3.7,0-6.6-3-6.6-6.6v-0.7c0-3.7,3-6.6,6.6-6.6h33.6c3.7,0,6.6,3,6.6,6.6v0.7
			C285.2,205.5,282.2,208.5,278.6,208.5z"/>
		<path class="st23" d="M412.8,228.6h-33.6c-3.7,0-6.6-3-6.6-6.6v-0.7c0-3.7,3-6.6,6.6-6.6h33.6c3.7,0,6.6,3,6.6,6.6v0.7
			C419.4,225.7,416.4,228.6,412.8,228.6z"/>
		<path class="st23" d="M226.7,228.6h-43.6c-3.7,0-6.6-3-6.6-6.6v-0.7c0-3.7,3-6.6,6.6-6.6h43.6c3.7,0,6.6,3,6.6,6.6v0.7
			C233.4,225.7,230.4,228.6,226.7,228.6z"/>
		<path class="st23" d="M270.7,308h-24.5c-3.7,0-6.6-3-6.6-6.6l0,0c0-3.7,3-6.6,6.6-6.6h24.5c3.7,0,6.6,3,6.6,6.6l0,0
			C277.4,305,274.4,308,270.7,308z"/>
		<path class="st23" d="M278,168.5h-17.3c-3.7,0-6.6-3-6.6-6.6v0c0-3.7,3-6.6,6.6-6.6H278c3.7,0,6.6,3,6.6,6.6v0
			C284.7,165.5,281.7,168.5,278,168.5z"/>
		<path class="st23" d="M210.5,148.1h-20.7c-3.7,0-6.6-3-6.6-6.6v0c0-3.7,3-6.6,6.6-6.6h20.7c3.7,0,6.6,3,6.6,6.6v0
			C217.1,145.1,214.2,148.1,210.5,148.1z"/>
		<path class="st23" d="M171.3,88.1h-30.5c-3.7,0-6.6-3-6.6-6.6v0c0-3.7,3-6.6,6.6-6.6h30.5c3.7,0,6.6,3,6.6,6.6v0
			C178,85.1,175,88.1,171.3,88.1z"/>
		<path class="st23" d="M269.1,88.1h-30.5c-3.7,0-6.6-3-6.6-6.6v0c0-3.7,3-6.6,6.6-6.6h30.5c3.7,0,6.6,3,6.6,6.6v0
			C275.8,85.1,272.8,88.1,269.1,88.1z"/>
		<path class="st23" d="M215.5,88.1h-20.7c-3.7,0-6.6-3-6.6-6.6v0c0-3.7,3-6.6,6.6-6.6h20.7c3.7,0,6.6,3,6.6,6.6v0
			C222.1,85.1,219.2,88.1,215.5,88.1z"/>
		<path class="st23" d="M117.4,107.7H89.9c-3.7,0-6.6-3-6.6-6.6v0c0-3.7,3-6.6,6.6-6.6h27.6c3.7,0,6.6,3,6.6,6.6v0
			C124.1,104.8,121.1,107.7,117.4,107.7z"/>
		<path class="st23" d="M171.3,107.7h-30.5c-3.7,0-6.6-3-6.6-6.6v0c0-3.7,3-6.6,6.6-6.6h30.5c3.7,0,6.6,3,6.6,6.6v0
			C178,104.8,175,107.7,171.3,107.7z"/>
		<path class="st23" d="M287.6,108.1h-48.3c-3.7,0-6.6-3-6.6-6.6v0c0-3.7,3-6.6,6.6-6.6h48.3c3.7,0,6.6,3,6.6,6.6v0
			C294.2,105.1,291.3,108.1,287.6,108.1z"/>
		<path class="st23" d="M216.4,108.1h-20.7c-3.7,0-6.6-3-6.6-6.6v0c0-3.7,3-6.6,6.6-6.6h20.7c3.7,0,6.6,3,6.6,6.6v0
			C223,105.1,220.1,108.1,216.4,108.1z"/>
		<path class="st23" d="M152.1,247.8h-20.7c-3.7,0-6.6-3-6.6-6.6v0c0-3.7,3-6.6,6.6-6.6h20.7c3.7,0,6.6,3,6.6,6.6v0
			C158.7,244.9,155.8,247.8,152.1,247.8z"/>
		<path class="st23" d="M152.1,208.1h-20.7c-3.7,0-6.6-3-6.6-6.6v0c0-3.7,3-6.6,6.6-6.6h20.7c3.7,0,6.6,3,6.6,6.6v0
			C158.7,205.1,155.8,208.1,152.1,208.1z"/>
		<path class="st23" d="M237.5,168.5h-20.7c-3.7,0-6.6-3-6.6-6.6v0c0-3.7,3-6.6,6.6-6.6h20.7c3.7,0,6.6,3,6.6,6.6v0
			C244.1,165.5,241.2,168.5,237.5,168.5z"/>
		<path class="st23" d="M322.2,167.7h-20.7c-3.7,0-6.6-3-6.6-6.6l0,0c0-3.7,3-6.6,6.6-6.6h20.7c3.7,0,6.6,3,6.6,6.6l0,0
			C328.9,164.8,325.9,167.7,322.2,167.7z"/>
		<path class="st23" d="M368.6,208.1h-20.7c-3.7,0-6.6-3-6.6-6.6v0c0-3.7,3-6.6,6.6-6.6h20.7c3.7,0,6.6,3,6.6,6.6v0
			C375.2,205.2,372.3,208.1,368.6,208.1z"/>
		<path class="st23" d="M270.7,228.3H250c-3.7,0-6.6-3-6.6-6.6l0,0c0-3.7,3-6.6,6.6-6.6h20.7c3.7,0,6.6,3,6.6,6.6l0,0
			C277.4,225.3,274.4,228.3,270.7,228.3z"/>
		<path class="st23" d="M173.4,287.8h-20.7c-3.7,0-6.6-3-6.6-6.6v0c0-3.7,3-6.6,6.6-6.6h20.7c3.7,0,6.6,3,6.6,6.6v0
			C180,284.8,177,287.8,173.4,287.8z"/>
		<path class="st23" d="M196.3,188.1h-15.5c-3.7,0-6.6-3-6.6-6.6l0,0c0-3.7,3-6.6,6.6-6.6h15.5c3.7,0,6.6,3,6.6,6.6l0,0
			C203,185.1,200,188.1,196.3,188.1z"/>
		<path class="st23" d="M158.9,228.3h-26.8c-3.7,0-6.6-3-6.6-6.6l0,0c0-3.7,3-6.6,6.6-6.6h26.8c3.7,0,6.6,3,6.6,6.6l0,0
			C165.5,225.3,162.6,228.3,158.9,228.3z"/>
		<path class="st23" d="M221.4,208.1h-11.8c-3.7,0-6.6-3-6.6-6.6v0c0-3.7,3-6.6,6.6-6.6h11.8c3.7,0,6.6,3,6.6,6.6v0
			C228,205.1,225.1,208.1,221.4,208.1z"/>
		<path class="st23" d="M186.2,208.1h-10.8c-3.7,0-6.6-3-6.6-6.6v0c0-3.7,3-6.6,6.6-6.6h10.8c3.7,0,6.6,3,6.6,6.6v0
			C192.8,205.1,189.9,208.1,186.2,208.1z"/>
		<path class="st23" d="M355.9,228.3H345c-3.7,0-6.6-3-6.6-6.6l0,0c0-3.7,3-6.6,6.6-6.6h10.8c3.7,0,6.6,3,6.6,6.6l0,0
			C362.5,225.3,359.6,228.3,355.9,228.3z"/>
		<path class="st23" d="M214.7,267.9h-6.3c-3.7,0-6.6-3-6.6-6.6l0,0c0-3.7,3-6.6,6.6-6.6h6.3c3.7,0,6.6,3,6.6,6.6l0,0
			C221.4,264.9,218.4,267.9,214.7,267.9z"/>
		<path class="st23" d="M209.5,287.8h-13.1c-3.7,0-6.6-3-6.6-6.6l0,0c0-3.7,3-6.6,6.6-6.6h13.1c3.7,0,6.6,3,6.6,6.6l0,0
			C216.1,284.8,213.2,287.8,209.5,287.8z"/>
		<path class="st23" d="M316.6,267.9h-6.3c-3.7,0-6.6-3-6.6-6.6l0,0c0-3.7,3-6.6,6.6-6.6h6.3c3.7,0,6.6,3,6.6,6.6l0,0
			C323.2,264.9,320.2,267.9,316.6,267.9z"/>
		<path class="st23" d="M385.4,267.9h-6.3c-3.7,0-6.6-3-6.6-6.6l0,0c0-3.7,3-6.6,6.6-6.6h6.3c3.7,0,6.6,3,6.6,6.6l0,0
			C392.1,264.9,389.1,267.9,385.4,267.9z"/>
		<path class="st23" d="M344.6,287.8h-6.3c-3.7,0-6.6-3-6.6-6.6v0c0-3.7,3-6.6,6.6-6.6h6.3c3.7,0,6.6,3,6.6,6.6v0
			C351.2,284.8,348.2,287.8,344.6,287.8z"/>
		<path class="st23" d="M286.8,267.9H238c-3.7,0-6.6-3-6.6-6.6l0,0c0-3.7,3-6.6,6.6-6.6h48.8c3.7,0,6.6,3,6.6,6.6l0,0
			C293.4,264.9,290.4,267.9,286.8,267.9z"/>
		<path class="st23" d="M335.6,287.8h-48.8c-3.7,0-6.6-3-6.6-6.6l0,0c0-3.7,3-6.6,6.6-6.6h48.8c3.7,0,6.6,3,6.6,6.6l0,0
			C342.2,284.8,339.2,287.8,335.6,287.8z"/>
		<path class="st23" d="M186.5,308h-33.9c-3.7,0-6.6-3-6.6-6.6l0,0c0-3.7,3-6.6,6.6-6.6h33.9c3.7,0,6.6,3,6.6,6.6l0,0
			C193.1,305,190.2,308,186.5,308z"/>
		<path class="st23" d="M321.2,308H294c-3.7,0-6.6-3-6.6-6.6l0,0c0-3.7,3-6.6,6.6-6.6h27.2c3.7,0,6.6,3,6.6,6.6l0,0
			C327.9,305,324.9,308,321.2,308z"/>
		<path class="st23" d="M222.8,308h-13.4c-3.7,0-6.6-3-6.6-6.6l0,0c0-3.7,3-6.6,6.6-6.6h13.4c3.7,0,6.6,3,6.6,6.6l0,0
			C229.5,305,226.5,308,222.8,308z"/>
		<path class="st23" d="M211.4,247.9h-37.1c-3.7,0-6.6-3-6.6-6.6v0c0-3.7,3-6.6,6.6-6.6h37.1c3.7,0,6.6,3,6.6,6.6v0
			C218,245,215,247.9,211.4,247.9z"/>
		<path class="st23" d="M306.8,247.7h-22.3c-3.7,0-6.6-3-6.6-6.6v0c0-3.7,3-6.6,6.6-6.6h22.3c3.7,0,6.6,3,6.6,6.6v0
			C313.4,244.7,310.5,247.7,306.8,247.7z"/>
		<path class="st23" d="M324.6,208.1h-22.3c-3.7,0-6.6-3-6.6-6.6v0c0-3.7,3-6.6,6.6-6.6h22.3c3.7,0,6.6,3,6.6,6.6v0
			C331.2,205.1,328.2,208.1,324.6,208.1z"/>
		<path class="st23" d="M351.6,247.7h-22.3c-3.7,0-6.6-3-6.6-6.6v0c0-3.7,3-6.6,6.6-6.6h22.3c3.7,0,6.6,3,6.6,6.6v0
			C358.2,244.7,355.3,247.7,351.6,247.7z"/>
		<path class="st23" d="M397.7,247.7h-22.3c-3.7,0-6.6-3-6.6-6.6v0c0-3.7,3-6.6,6.6-6.6h22.3c3.7,0,6.6,3,6.6,6.6v0
			C404.3,244.7,401.3,247.7,397.7,247.7z"/>
	</g>
	<g id="lines">
		<path class="st24" d="M49.5,88.1h-6.3c-3.7,0-6.6-3-6.6-6.6v0c0-3.7,3-6.6,6.6-6.6h6.3c3.7,0,6.6,3,6.6,6.6v0
			C56.1,85.1,53.2,88.1,49.5,88.1z"/>
		<path class="st24" d="M49.5,107.7h-6.3c-3.7,0-6.6-3-6.6-6.6v0c0-3.7,3-6.6,6.6-6.6h6.3c3.7,0,6.6,3,6.6,6.6v0
			C56.1,104.8,53.2,107.7,49.5,107.7z"/>
		<path class="st24" d="M49.5,148.1h-6.3c-3.7,0-6.6-3-6.6-6.6v0c0-3.7,3-6.6,6.6-6.6h6.3c3.7,0,6.6,3,6.6,6.6v0
			C56.1,145.1,53.2,148.1,49.5,148.1z"/>
		<path class="st24" d="M49.5,127.9h-6.3c-3.7,0-6.6-3-6.6-6.6v0c0-3.7,3-6.6,6.6-6.6h6.3c3.7,0,6.6,3,6.6,6.6v0
			C56.1,125,53.2,127.9,49.5,127.9z"/>
		<path class="st24" d="M49.5,168.3h-6.3c-3.7,0-6.6-3-6.6-6.6v0c0-3.7,3-6.6,6.6-6.6h6.3c3.7,0,6.6,3,6.6,6.6v0
			C56.1,165.3,53.2,168.3,49.5,168.3z"/>
		<path class="st24" d="M49.5,187.9h-6.3c-3.7,0-6.6-3-6.6-6.6v0c0-3.7,3-6.6,6.6-6.6h6.3c3.7,0,6.6,3,6.6,6.6v0
			C56.1,185,53.2,187.9,49.5,187.9z"/>
		<path class="st24" d="M49.5,228.3h-6.3c-3.7,0-6.6-3-6.6-6.6l0,0c0-3.7,3-6.6,6.6-6.6h6.3c3.7,0,6.6,3,6.6,6.6l0,0
			C56.1,225.3,53.2,228.3,49.5,228.3z"/>
		<path class="st24" d="M49.5,208.1h-6.3c-3.7,0-6.6-3-6.6-6.6v0c0-3.7,3-6.6,6.6-6.6h6.3c3.7,0,6.6,3,6.6,6.6v0
			C56.1,205.1,53.2,208.1,49.5,208.1z"/>
		<path class="st24" d="M49.5,248.5h-6.3c-3.7,0-6.6-3-6.6-6.6v0c0-3.7,3-6.6,6.6-6.6h6.3c3.7,0,6.6,3,6.6,6.6v0
			C56.1,245.5,53.2,248.5,49.5,248.5z"/>
		<path class="st24" d="M49.5,268.1h-6.3c-3.7,0-6.6-3-6.6-6.6l0,0c0-3.7,3-6.6,6.6-6.6h6.3c3.7,0,6.6,3,6.6,6.6l0,0
			C56.1,265.1,53.2,268.1,49.5,268.1z"/>
		<path class="st24" d="M49.5,308.5h-6.3c-3.7,0-6.6-3-6.6-6.6v0c0-3.7,3-6.6,6.6-6.6h6.3c3.7,0,6.6,3,6.6,6.6v0
			C56.1,305.5,53.2,308.5,49.5,308.5z"/>
		<path class="st24" d="M49.5,288.3h-6.3c-3.7,0-6.6-3-6.6-6.6l0,0c0-3.7,3-6.6,6.6-6.6h6.3c3.7,0,6.6,3,6.6,6.6l0,0
			C56.1,285.3,53.2,288.3,49.5,288.3z"/>
		<path class="st24" d="M49.5,328.6h-6.3c-3.7,0-6.6-3-6.6-6.6v0c0-3.7,3-6.6,6.6-6.6h6.3c3.7,0,6.6,3,6.6,6.6v0
			C56.1,325.7,53.2,328.6,49.5,328.6z"/>
		<path class="st24" d="M49.5,348.3h-6.3c-3.7,0-6.6-3-6.6-6.6v0c0-3.7,3-6.6,6.6-6.6h6.3c3.7,0,6.6,3,6.6,6.6v0
			C56.1,345.3,53.2,348.3,49.5,348.3z"/>
		<path class="st24" d="M49.5,368.5h-6.3c-3.7,0-6.6-3-6.6-6.6v0c0-3.7,3-6.6,6.6-6.6h6.3c3.7,0,6.6,3,6.6,6.6v0
			C56.1,365.5,53.2,368.5,49.5,368.5z"/>
	</g>
	<g id="space" class="st0">
		<rect x="361.4" y="220" class="st25" width="10" height="37.5"/>
		<rect x="331.2" y="155.2" class="st25" width="10" height="37.5"/>
	</g>
</g>
<g id="Layer_10_copy_2">
	<g>
		<defs>
			<filter id="Adobe_OpacityMaskFilter" filterUnits="userSpaceOnUse" x="-8.1" y="118.2" width="521" height="217.7">
				
					<feColorMatrix  type="matrix" values="-1 0 0 0 1  0 -1 0 0 1  0 0 -1 0 1  0 0 0 1 0" color-interpolation-filters="sRGB" result="source"/>
				<feFlood  style="flood-color:white;flood-opacity:1" result="back"/>
				<feBlend  in="source" in2="back" mode="normal"/>
			</filter>
		</defs>
		<mask maskUnits="userSpaceOnUse" x="-8.1" y="118.2" width="521" height="217.7" id="SVGID_1_">
			<g class="st26">
			</g>
		</mask>
		<g class="st27">
			<g style="opacity:0.2;">
				
					<image style="overflow:visible;" width="2171" height="907" xlink:href="37EA7701F920A4D9.png"  transform="matrix(0.24 0 0 0.24 -8.084 118.2061)">
				</image>
			</g>
			<g>
				<g>
					<g>
						<path class="st28" d="M410.6,288.7c0,0-1.1,2.9,2.5,5.7c3.5,2.8,9.9,5.9,11.1,5.1c1.2-0.8,8.9-5.9,9.6-8.5
							c0.7-2.7,1.4-16.4-1.7-20.1c-3.1-3.7-23.1-26.9-25.2-31c-2.1-4-5.7-12.5-3.9-14.4c1.9-1.9,5.2-25.1,30.1-29.2
							c0,0,12.4-6.9,24.3,1.7c11.9,8.6,7.9,6.7,7.9,6.7s2.4,6.8,4.9,8c2.5,1.2,8.8,5.9,12.7,1.6c3.9-4.3,1.9-6.4,6.6-7.7
							c0,0,1.7,0.9,4.4-2.5c2.7-3.3,2-5.2,3.9-6.4c1.8-1.2,5.6-3,5.2-6.4c-0.4-3.4-5.3-16.5-5.3-16.5s0.9-7.5-0.7-9.5
							c-1.6-2-17.2-17.5-19.1-18.7c0,0-9.5-7.2-17.3-5.7c0,0,1.1,2.8,3.1,3.9c0,0-3.5,1.1-5.3-5.5c-1.9-6.5-4.3-9-6.7-11.2
							c-2.4-2.2-5.7,5.3-7.3,7.5c-1.6,2.1-13.3-8.7-39.5-4.1c0,0-9.2,6.3-23.7-0.8c0,0-17.6-10.9-35.2,2.3c0,0-6.8,4.7-15.2,12.8
							l0.9-2.5c0,0-3.2-0.9-8.8,8c0,0,1.5-4.1,3.6-6.7c0,0-35.9,0.8-46.1,2.7c-10.2,1.9-17.9,2-20.8,3.5c-2.9,1.5-17.7,9.5-36.9,4.9
							c-19.2-4.5-41.7,9.3-51.8,15.9c-10.1,6.6-14.6,12.7-14.6,12.7s-43.6,37.7-60.2,48.7c-16.5,10.9-54.3,28.8-79.6,8.5
							c0,0-12.2-9.1-4.5-18.1c7.7-9.1,7.9-7.7,4.5-10.7c-3.4-2.9-11.2,1.3-14.9,11.7c-3.7,10.4,0.6,21.1,7.7,26.1
							c7.2,5.1,8.4,8.8,26.6,10.7s52.8-6,56.6-10.1c0,0,15.5-7.6,21.7-14.9c6.3-7.3,42-31.3,42-31.3s-10,31.6-10,39.9
							c0,0-6.4,9.7-17.5,13.5c0,0-7.1-0.5-5.2,13.2c1.9,13.7-0.1,20.6,1.5,28.3c1.6,7.7,4.4,9.7,4.4,9.7s0.3,5.1,1.6,7.2
							c1.3,2.1,2.9,4.7,7.5,6.9c0,0,2.7-0.4,4.4,0.9c1.7,1.3,6,1.6,8.7,0.3c2.7-1.3,5.1-2.1,6.5-1.7c1.4,0.4,1.5-1.7,4.5-1.6
							c3.1,0.1,8.7-1.7,8.1-5.1c-0.5-3.4-1.5-4.9-5.5-7.5c-4-2.6-13.9-1.6-13.9-1.6s-8.1-12.9-3.2-19.7c4.9-6.7,3.7-15.1,20.5-24.6
							c16.8-9.5,18.9-13.6,23.8-16.5c4.9-2.9,10.9-6.1,13-9.2c2.1-3.1,7.3,8.2,10.3,10.2c3.1,2,10,7,6.5,27.7c0,0,0.5,3.1,7.5,6.3
							c6.9,3.2,18.3,9.2,22,13.2c3.7,4,8.1,4.8,9,4.4c0.9-0.4,21-0.1,21-0.1s6.3,0.1,7.5-3.8c0,0-5.5-14.4-13.7-12.4
							c-8.3,2-13.3,0.4-13.3,0.4s-13.5-5.1-13.3-22.7c0,0,2.8-5.1,4-11.7c0,0,2.9-14.7,1.7-17.1c0,0,0.7-2.9,7,3.5
							c6.3,6.3,10.1,7.1,11.4,6.4c1.3-0.7,11.2,2.1,16.1,0.5c4.9-1.6,10.5-2.8,12.3-1.9c1.7,0.9,5.5,27.6,7.1,31.7
							c1.6,4.1,8.1,6.3,5.7,24.8c0,0-0.5,2.3,2.5,4.3c3.1,2,10.1,9.1,10.9,10c0.8,0.9,11.1,2.4,12.7,0.1c1.6-2.3,3.1-1.7,4.6-1.1
							c1.5,0.6,7.5,0.8,8.9-3.9c0,0,5.5,0.1,7.5-3.9c0,0-0.3-5.3-6.6-10.2c0,0-2.5-2.4-14-2.3c0,0-5.5-8.8-5.6-13.7
							c-0.1-4.9,0.8-7.3,2-14.9c1.2-7.6,2.5-13.6,3.6-18.7s6.1-2.7,7.2-3.4c1.1-0.7,6.3-4.3,9.8-3.1c3.5,1.3,5.8-0.3,8.5,3.5
							c2.7,3.8,8.9,14,11.7,15.6c2.8,1.6,14.1,9.2,17.5,10.5c3.4,1.4,6.9,2.7,8.4,6.5C405.2,276.1,415.7,280.9,410.6,288.7z"/>
					</g>
					<path class="st28" d="M13,211.7L13,211.7c0,0-0.5,0.1-1.4,0.3c-3.6,1.2-7.7,5.4-10.2,12.3c-3.7,10.4,0.6,21.1,7.7,26.1
						c7.2,5.1,8.4,8.8,26.6,10.7s52.8-6,56.6-10.1c0,0,15.5-7.6,21.7-14.9c6.3-7.3,42-31.3,42-31.3s-0.1,0.4-0.3,1.1
						c2.8-6.2,4.4-11.9,0.2-12c0,0-37.2,25.9-46.5,34.2c-9.3,8.3-32.6,20.3-44.6,24.3c-12,4-41.8-1.3-48.6-4.8
						c-6.9-3.5-11.4-15.2-7.7-24C12.3,214.6,13,211.7,13,211.7z"/>
					<path class="st28" d="M410.6,288.7c0,0-1.1,2.9,2.5,5.7c3.5,2.8,9.9,5.9,11.1,5.1c1.2-0.8,8.9-5.9,9.6-8.5
						c0.7-2.7,1.4-16.4-1.7-20.1c-3.1-3.7-23.1-26.9-25.2-31c-2.1-4-5.7-12.5-3.9-14.4c1.9-1.9,5.2-25.1,30.1-29.2
						c0,0,12.4-6.9,24.3,1.7c11.9,8.6,7.9,6.7,7.9,6.7s2.4,6.8,4.9,8c2.2,1,7,4.5,10.8,3c-0.7-0.8-1.6-1.6-2.8-2.5
						c-9-6.6-4.3-4.9-4.3-4.9s-0.7-2.4-3.4-7c-2.7-4.7,8.8-4.7,8.8-4.7l-16.3-0.4l8.5-2.8c0,0-2.3-2.5-0.3-5.1
						c2-2.5,6.8-0.9-0.3-5.2c-7.1-4.3-9.7-7.3-16.5-4c-6.8,3.3-4.1,2.9-10.7,4.3c-6.5,1.3-6.5,6.1-12.3,3.5
						c-5.7-2.7-3.6-5.2-4.7-10.3s-8.4-5.2-17.1-1.9c-8.7,3.3-17.1-10.3-31.5,7.1c-14.4,17.3-9.9,10.9-22.7,17.6
						c-12.8,6.7-28,1.8-27.6,27.5c0.4,25.6,7,32.4,2.8,34.3c-4.2,1.9-3.9,4.5-5.3,1.4c-1.5-3.1,0.6-12.9-2.5-14.6
						c-3.1-1.7-10.5,1.5-7.2,5.7c3.3,4.3,5.1,5.5,3.1,7.1c-2,1.6-3.9,5.1-5.7,1.7c-1.9-3.4-2.1-5.5-3.1-8.5c-1-2.9,0.7-9.6-2.8-13.5
						c-3.5-3.9-7.6-4.4-5.5-8.5c2.1-4.1,8.4-28.7,8.4-28.7s21.6-24.5,27.2-33.6c5.6-9.1,3.2-19.7-2.1-14.4
						c-5.3,5.3-5.6,17.3-13.1,23.7c-7.5,6.4-3.5,18.1-21.6,12c-18.1-6.1-16.5-5.9-33.1-4.5c-16.5,1.3-2.6,6.5-25.1,3.7
						c-22.5-2.7-24.9-11.5-31.9-13.1c-6.9-1.5-24.4,2.4-29.6,30c0,0,6,6.4-2.2,11.8c-8.3,5.4-23.4,12.6-17.4,19
						c5.9,6.4,11.5,5.7,14.5-6.7c0,0,9.3,10.8,1.6,19.2c-7.7,8.5-13.2,3.1-22,9.9c-8.8,6.8-18.1,2.4-15.2,15.7
						c2.9,13.3,1.3-1.9-6.1-3.7c-7.5-1.9-6.3,4.9-2.8,6.9c3.5,2,0.3,11.5,3.1,15.9c2.8,4.4,4.9-2,8.8,4.1c3.9,6.1,5.7,6,8,7.9
						c0,0-8.1-12.9-3.2-19.7c4.9-6.7,3.7-15.1,20.5-24.6c16.8-9.5,18.9-13.6,23.8-16.5c4.9-2.9,10.9-6.1,13-9.2
						c2.1-3.1,7.3,8.2,10.3,10.2c3.1,2,10,7,6.5,27.7c0,0,0.5,3.1,7.5,6.3c6.9,3.2,18.3,9.2,22,13.2c3.7,4,8.1,4.8,9,4.4
						c0.9-0.4,21-0.1,21-0.1s6.3,0.1,7.5-3.8c0,0-5.5-14.4-13.7-12.4c-8.3,2-13.3,0.4-13.3,0.4s-13.5-5.1-13.3-22.7
						c0,0,2.8-5.1,4-11.7c0,0,2.9-14.7,1.7-17.1c0,0,0.7-2.9,7,3.5c6.3,6.3,10.1,7.1,11.4,6.4c1.3-0.7,11.2,2.1,16.1,0.5
						c4.9-1.6,10.5-2.8,12.3-1.9c1.7,0.9,5.5,27.6,7.1,31.7c1.6,4.1,8.1,6.3,5.7,24.8c0,0-0.5,2.3,2.5,4.3c3.1,2,10.1,9.1,10.9,10
						c0.8,0.9,11.1,2.4,12.7,0.1c1.6-2.3,3.1-1.7,4.6-1.1c1.5,0.6,7.5,0.8,8.9-3.9c0,0,5.5,0.1,7.5-3.9c0,0-0.3-5.3-6.6-10.2
						c0,0-2.5-2.4-14-2.3c0,0-5.5-8.8-5.6-13.7c-0.1-4.9,0.8-7.3,2-14.9c1.2-7.6,2.5-13.6,3.6-18.7s6.1-2.7,7.2-3.4
						c1.1-0.7,6.3-4.3,9.8-3.1c3.5,1.3,5.8-0.3,8.5,3.5c2.7,3.8,8.9,14,11.7,15.6c2.8,1.6,14.1,9.2,17.5,10.5
						c3.4,1.4,6.9,2.7,8.4,6.5C405.2,276.1,415.7,280.9,410.6,288.7L410.6,288.7z M164,321.4c0,0,2.8-3.9-1.2-10
						c-4-6.1-9.3-2.3-11.6-4.2c0,0,9.9-1,13.9,1.6c4,2.6,5,4.1,5.5,7.5C171.1,319.2,167.1,321,164,321.4z"/>
					<g>
						<path class="st28" d="M356.2,305.9c1.7-0.4,3.9-1.4,5-3.6c0,0-0.3-5.3-6.6-10.2c0,0-0.6-0.6-2.5-1.1c1.3,1.2,2.2,2.8,1.3,5
							c-2.2,5.6,0.1,0.5,1.5,5.2C355.4,303.2,355.9,304.8,356.2,305.9z"/>
						<path class="st28" d="M343.8,309.7c0.4,0.1,0.7,0.2,1.1,0.4c1.5,0.6,7.5,0.8,8.9-3.9c0,0,0.2,0,0.6,0c0.1-1.3-0.3-2.6-1.4-3.8
							c-3.3-3.4-4.3-6.3-8.3-7.9c-3.9-1.6-3.7-0.5-3.7-0.5s5.3,0.3,5.7,3.9c0.3,3.6-0.1,4.5-0.1,4.5s-3.7-0.8-4.6-1.7
							C341.2,299.9,343.6,307.1,343.8,309.7z"/>
						<path class="st28" d="M326.7,310.1c0.4,0.5,0.8,0.8,0.9,0.9c0.8,0.9,11.1,2.4,12.7,0.1c0.6-0.8,1.2-1.3,1.8-1.5
							c-1.4-3-3.3-6.3-5.1-7.3c-3.5-1.9-10.1-2.8-12.3-6.8c-2.1-4-4.8-1.9-4.8-1.9s0,2,2.7,5.9C324.2,302,325.8,306.9,326.7,310.1z"
							/>
						<path class="st28" d="M426,289.2c0,0-3.2,0.8-5.5-1.6c-2.3-2.4-0.7-8.1,6.9-4.5C434.7,286.5,430,286.6,426,289.2z"/>
					</g>
					<path class="st28" d="M496.5,199.2c0.3-0.6,0.6-1.1,1.3-1.5c0.5-0.3,1.2-0.7,1.9-1.2c1.3-1.6,2.5-3.5,1.8-4
						c-1.1-0.9-4.1,2.4-5,1.6c-0.9-0.8,2-1.9,0-3.8c-2-1.9-4.7,0.3-5.6-1.1c-0.9-1.4-1.5-5.3-2.3-8.6c-0.8-3.3-0.9-3.9-3.9-4.7
						c-3-0.8-0.8,2.5-0.8,2.5s1.7-1,2.9,3.5c1.1,4.5,0.5,5,1.5,5.9c0.9,0.9,2.7,2.3,4.5,4.9c1.8,2.5,2.1,2.3,2.9,4.6
						C495.8,197.9,496.1,198.6,496.5,199.2z"/>
					<path class="st28" d="M465.8,204.5c0.4,0.5-0.1,0.3-0.3,0.2l-0.1,0.1c0.3,0.8,2,5.3,3.9,7.2c5-1.2,11.8-3.1,13.3-4.4
						c2.5-2.1,3.3-3.5,4.6-2.1c0.3,0.4,0.8,0.9,1.2,1.4c0.3-0.1,0.6-0.2,1-0.3c0,0,0.4,0.2,1.2,0c-0.2-1.1-0.6-2.1-1.3-2.5
						c-1.9-1.2-4.6-0.4-5.8,0.7c-1.2,1.1-0.8,2.4-2.8,1.6c-2-0.9-5.1-0.2-8.8-2.9C470.3,202.3,467.9,203.2,465.8,204.5z"/>
					<path class="st28" d="M424,261.3c-6.9-8.2-15.7-18.8-17.1-21.4c-2.1-4-5.7-12.5-3.9-14.4c0.1-0.1,0.3-0.3,0.4-0.6
						c-1.8,0.5-3.2,1.7-2.2,4.4c2.1,5.8,3.6,9.2,3.6,9.2s0.2,1.6-1.9-0.4c-2.1-2-4.7-5.7-4.7-5.7s0.3,4.4,1.9,6.7
						c1.6,2.3,1.8,6.7,0.9,8.2c-0.9,1.5,3.9-1.5,5.1-0.5c1.3,1-2.3,2-3.3,2.9c-0.9,0.9,3.4,0.9,2.4,4.9c-1,4,4.9-2.1,7.3,0.4
						c2.5,2.5,2.1,5.7,2.1,5.7s6.2,0.2,4.2,6.4c-2,6.2-1.6,7.8-0.6,9.4c1,1.5,5,2.6,6.8,1.5c1.8-1.1,2.3-3.4,0.3-4.9
						c-2-1.5-2.7-1.8-2.1-3.1c0.6-1.3-0.8,1.4-1.8-1.4c-1-2.8-1.9-5.2-0.3-6.1c1.6-0.9,2.8,0.3,2.8,0.3L424,261.3z"/>
					<path class="st28" d="M488.2,175.6c0,0-5.5-6.9-7.8-7.8c-4.6-1.7-7.8,0.6-10.5-0.3c-2.1-0.7-0.4,3.1,1.8,6.2
						c0.7,1,6.3,6.7,5.8,2.3c0,0-1.5,0.9-4-2.1c-2.5-3-0.6-5.5-0.6-5.5c5.9-1.4-0.4,2.3,3.5,4.6c0.9,0.5,2.1,0.5,3.4-0.9
						c0.9-1,0.4-2.2,1.3-2.3C482.4,169.6,487.1,174.9,488.2,175.6z"/>
				</g>
			</g>
		</g>
	</g>
</g>
<g id="front_bubbles" class="st0">
	<path class="st29" d="M157.7,172h-27.5c-3.7,0-6.6-3-6.6-6.6v0c0-3.7,3-6.6,6.6-6.6h27.5c3.7,0,6.6,3,6.6,6.6v0
		C164.3,169,161.3,172,157.7,172z"/>
	<path class="st29" d="M147.3,251.7h-14.8c-3.7,0-6.6-3-6.6-6.6l0,0c0-3.7,3-6.6,6.6-6.6h14.8c3.7,0,6.6,3,6.6,6.6l0,0
		C153.9,248.8,150.9,251.7,147.3,251.7z"/>
	<path class="st30" d="M357.1,151.8h-11.6c-3.7,0-6.6-3-6.6-6.6l0,0c0-3.7,3-6.6,6.6-6.6h11.6c3.7,0,6.6,3,6.6,6.6l0,0
		C363.8,148.8,360.8,151.8,357.1,151.8z"/>
	<path class="st30" d="M144.1,311.8h-11.6c-3.7,0-6.6-3-6.6-6.6v0c0-3.7,3-6.6,6.6-6.6h11.6c3.7,0,6.6,3,6.6,6.6v0
		C150.7,308.8,147.7,311.8,144.1,311.8z"/>
	<path class="st30" d="M123.4,331.7h-11.6c-3.7,0-6.6-3-6.6-6.6l0,0c0-3.7,3-6.6,6.6-6.6h11.6c3.7,0,6.6,3,6.6,6.6l0,0
		C130,328.8,127.1,331.7,123.4,331.7z"/>
	<path class="st30" d="M101.4,351.8H89.7c-3.7,0-6.6-3-6.6-6.6v0c0-3.7,3-6.6,6.6-6.6h11.6c3.7,0,6.6,3,6.6,6.6v0
		C108,348.9,105,351.8,101.4,351.8z"/>
	<path class="st29" d="M193.2,152.3h-31.2c-3.7,0-6.6-3-6.6-6.6v0c0-3.7,3-6.6,6.6-6.6h31.2c3.7,0,6.6,3,6.6,6.6v0
		C199.9,149.4,196.9,152.3,193.2,152.3z"/>
	<path class="st31" d="M263.4,271.7h-31.2c-3.7,0-6.6-3-6.6-6.6v0c0-3.7,3-6.6,6.6-6.6h31.2c3.7,0,6.6,3,6.6,6.6v0
		C270,268.7,267.1,271.7,263.4,271.7z"/>
	<path class="st31" d="M412.8,212.5h-33.6c-3.7,0-6.6-3-6.6-6.6v-0.7c0-3.7,3-6.6,6.6-6.6h33.6c3.7,0,6.6,3,6.6,6.6v0.7
		C419.4,209.6,416.4,212.5,412.8,212.5z"/>
	<path class="st31" d="M278,152.3h-17.3c-3.7,0-6.6-3-6.6-6.6v0c0-3.7,3-6.6,6.6-6.6H278c3.7,0,6.6,3,6.6,6.6v0
		C284.7,149.4,281.7,152.3,278,152.3z"/>
	<path class="st32" d="M152.1,192h-20.7c-3.7,0-6.6-3-6.6-6.6v0c0-3.7,3-6.6,6.6-6.6h20.7c3.7,0,6.6,3,6.6,6.6v0
		C158.7,189,155.8,192,152.1,192z"/>
	<path class="st29" d="M237.5,152.3h-20.7c-3.7,0-6.6-3-6.6-6.6v0c0-3.7,3-6.6,6.6-6.6h20.7c3.7,0,6.6,3,6.6,6.6v0
		C244.1,149.4,241.2,152.3,237.5,152.3z"/>
	<path class="st32" d="M322.2,151.6h-20.7c-3.7,0-6.6-3-6.6-6.6v0c0-3.7,3-6.6,6.6-6.6h20.7c3.7,0,6.6,3,6.6,6.6v0
		C328.9,148.7,325.9,151.6,322.2,151.6z"/>
	<path class="st32" d="M173.4,271.7h-20.7c-3.7,0-6.6-3-6.6-6.6l0,0c0-3.7,3-6.6,6.6-6.6h20.7c3.7,0,6.6,3,6.6,6.6l0,0
		C180,268.7,177,271.7,173.4,271.7z"/>
	<path class="st33" d="M209.5,271.7h-13.1c-3.7,0-6.6-3-6.6-6.6v0c0-3.7,3-6.6,6.6-6.6h13.1c3.7,0,6.6,3,6.6,6.6v0
		C216.1,268.7,213.2,271.7,209.5,271.7z"/>
	<path class="st30" d="M385.4,251.7h-6.3c-3.7,0-6.6-3-6.6-6.6v0c0-3.7,3-6.6,6.6-6.6h6.3c3.7,0,6.6,3,6.6,6.6v0
		C392.1,248.8,389.1,251.7,385.4,251.7z"/>
	<path class="st33" d="M344.6,271.7h-6.3c-3.7,0-6.6-3-6.6-6.6l0,0c0-3.7,3-6.6,6.6-6.6h6.3c3.7,0,6.6,3,6.6,6.6l0,0
		C351.2,268.7,348.2,271.7,344.6,271.7z"/>
	<path class="st33" d="M335.6,271.7h-48.8c-3.7,0-6.6-3-6.6-6.6v0c0-3.7,3-6.6,6.6-6.6h48.8c3.7,0,6.6,3,6.6,6.6v0
		C342.2,268.7,339.2,271.7,335.6,271.7z"/>
	<path class="st33" d="M186.5,291.9h-33.9c-3.7,0-6.6-3-6.6-6.6v0c0-3.7,3-6.6,6.6-6.6h33.9c3.7,0,6.6,3,6.6,6.6v0
		C193.1,288.9,190.2,291.9,186.5,291.9z"/>
	<path class="st33" d="M222.8,291.9h-13.4c-3.7,0-6.6-3-6.6-6.6v0c0-3.7,3-6.6,6.6-6.6h13.4c3.7,0,6.6,3,6.6,6.6v0
		C229.5,288.9,226.5,291.9,222.8,291.9z"/>
	<path class="st33" d="M211.4,231.8h-37.1c-3.7,0-6.6-3-6.6-6.6v0c0-3.7,3-6.6,6.6-6.6h37.1c3.7,0,6.6,3,6.6,6.6v0
		C218,228.8,215,231.8,211.4,231.8z"/>
	<path class="st34" d="M351.6,231.6h-22.3c-3.7,0-6.6-3-6.6-6.6v0c0-3.7,3-6.6,6.6-6.6h22.3c3.7,0,6.6,3,6.6,6.6v0
		C358.2,228.6,355.3,231.6,351.6,231.6z"/>
</g>
<g id="front_bubbles_gold">
	<path class="st23" d="M157.7,188.1h-27.5c-3.7,0-6.6-3-6.6-6.6l0,0c0-3.7,3-6.6,6.6-6.6h27.5c3.7,0,6.6,3,6.6,6.6l0,0
		C164.3,185.1,161.3,188.1,157.7,188.1z"/>
	<path class="st23" d="M147.3,267.9h-14.8c-3.7,0-6.6-3-6.6-6.6l0,0c0-3.7,3-6.6,6.6-6.6h14.8c3.7,0,6.6,3,6.6,6.6l0,0
		C153.9,264.9,150.9,267.9,147.3,267.9z"/>
	<path class="st23" d="M357.1,167.9h-11.6c-3.7,0-6.6-3-6.6-6.6v0c0-3.7,3-6.6,6.6-6.6h11.6c3.7,0,6.6,3,6.6,6.6v0
		C363.8,164.9,360.8,167.9,357.1,167.9z"/>
	<path class="st23" d="M144.1,327.9h-11.6c-3.7,0-6.6-3-6.6-6.6l0,0c0-3.7,3-6.6,6.6-6.6h11.6c3.7,0,6.6,3,6.6,6.6l0,0
		C150.7,325,147.7,327.9,144.1,327.9z"/>
	<path class="st23" d="M123.4,347.9h-11.6c-3.7,0-6.6-3-6.6-6.6v0c0-3.7,3-6.6,6.6-6.6h11.6c3.7,0,6.6,3,6.6,6.6v0
		C130,344.9,127.1,347.9,123.4,347.9z"/>
	<path class="st23" d="M101.4,368H89.7c-3.7,0-6.6-3-6.6-6.6l0,0c0-3.7,3-6.6,6.6-6.6h11.6c3.7,0,6.6,3,6.6,6.6l0,0
		C108,365,105,368,101.4,368z"/>
	<path class="st23" d="M193.2,168.5h-31.2c-3.7,0-6.6-3-6.6-6.6v0c0-3.7,3-6.6,6.6-6.6h31.2c3.7,0,6.6,3,6.6,6.6v0
		C199.9,165.5,196.9,168.5,193.2,168.5z"/>
	<path class="st23" d="M263.4,287.8h-31.2c-3.7,0-6.6-3-6.6-6.6l0,0c0-3.7,3-6.6,6.6-6.6h31.2c3.7,0,6.6,3,6.6,6.6l0,0
		C270,284.8,267.1,287.8,263.4,287.8z"/>
	<path class="st23" d="M412.8,228.6h-33.6c-3.7,0-6.6-3-6.6-6.6v-0.7c0-3.7,3-6.6,6.6-6.6h33.6c3.7,0,6.6,3,6.6,6.6v0.7
		C419.4,225.7,416.4,228.6,412.8,228.6z"/>
	<path class="st23" d="M278,168.5h-17.3c-3.7,0-6.6-3-6.6-6.6v0c0-3.7,3-6.6,6.6-6.6H278c3.7,0,6.6,3,6.6,6.6v0
		C284.7,165.5,281.7,168.5,278,168.5z"/>
	<path class="st23" d="M152.1,208.1h-20.7c-3.7,0-6.6-3-6.6-6.6v0c0-3.7,3-6.6,6.6-6.6h20.7c3.7,0,6.6,3,6.6,6.6v0
		C158.7,205.1,155.8,208.1,152.1,208.1z"/>
	<path class="st23" d="M237.5,168.5h-20.7c-3.7,0-6.6-3-6.6-6.6v0c0-3.7,3-6.6,6.6-6.6h20.7c3.7,0,6.6,3,6.6,6.6v0
		C244.1,165.5,241.2,168.5,237.5,168.5z"/>
	<path class="st23" d="M322.2,167.7h-20.7c-3.7,0-6.6-3-6.6-6.6l0,0c0-3.7,3-6.6,6.6-6.6h20.7c3.7,0,6.6,3,6.6,6.6l0,0
		C328.9,164.8,325.9,167.7,322.2,167.7z"/>
	<path class="st23" d="M173.4,287.8h-20.7c-3.7,0-6.6-3-6.6-6.6v0c0-3.7,3-6.6,6.6-6.6h20.7c3.7,0,6.6,3,6.6,6.6v0
		C180,284.8,177,287.8,173.4,287.8z"/>
	<path class="st23" d="M209.5,287.8h-13.1c-3.7,0-6.6-3-6.6-6.6l0,0c0-3.7,3-6.6,6.6-6.6h13.1c3.7,0,6.6,3,6.6,6.6l0,0
		C216.1,284.8,213.2,287.8,209.5,287.8z"/>
	<path class="st23" d="M385.4,267.9h-6.3c-3.7,0-6.6-3-6.6-6.6l0,0c0-3.7,3-6.6,6.6-6.6h6.3c3.7,0,6.6,3,6.6,6.6l0,0
		C392.1,264.9,389.1,267.9,385.4,267.9z"/>
	<path class="st23" d="M344.6,287.8h-6.3c-3.7,0-6.6-3-6.6-6.6v0c0-3.7,3-6.6,6.6-6.6h6.3c3.7,0,6.6,3,6.6,6.6v0
		C351.2,284.8,348.2,287.8,344.6,287.8z"/>
	<path class="st23" d="M335.6,287.8h-48.8c-3.7,0-6.6-3-6.6-6.6l0,0c0-3.7,3-6.6,6.6-6.6h48.8c3.7,0,6.6,3,6.6,6.6l0,0
		C342.2,284.8,339.2,287.8,335.6,287.8z"/>
	<path class="st23" d="M186.5,308h-33.9c-3.7,0-6.6-3-6.6-6.6l0,0c0-3.7,3-6.6,6.6-6.6h33.9c3.7,0,6.6,3,6.6,6.6l0,0
		C193.1,305,190.2,308,186.5,308z"/>
	<path class="st23" d="M222.8,308h-13.4c-3.7,0-6.6-3-6.6-6.6l0,0c0-3.7,3-6.6,6.6-6.6h13.4c3.7,0,6.6,3,6.6,6.6l0,0
		C229.5,305,226.5,308,222.8,308z"/>
	<path class="st23" d="M211.4,247.9h-37.1c-3.7,0-6.6-3-6.6-6.6v0c0-3.7,3-6.6,6.6-6.6h37.1c3.7,0,6.6,3,6.6,6.6v0
		C218,245,215,247.9,211.4,247.9z"/>
	<path class="st23" d="M351.6,247.7h-22.3c-3.7,0-6.6-3-6.6-6.6v0c0-3.7,3-6.6,6.6-6.6h22.3c3.7,0,6.6,3,6.6,6.6v0
		C358.2,244.7,355.3,247.7,351.6,247.7z"/>
	<path class="st23" d="M247.1,188.1h-27.5c-3.7,0-6.6-3-6.6-6.6v0c0-3.7,3-6.6,6.6-6.6h27.5c3.7,0,6.6,3,6.6,6.6v0
		C253.7,185.1,250.8,188.1,247.1,188.1z"/>
</g>
<g id="Layer_12">
</g>
<g id="Layer_15" class="st0">
	<text transform="matrix(1 0 0 1 -30.966 519.9749)" class="st1"><tspan x="0" y="0" class="st35 st36 st37">Pitt</tspan><tspan x="263.2" y="0" class="st23 st36 st37">CSC</tspan></text>
</g>
</svg>
